<?xml version="1.0" encoding="UTF-8"?>
<svg version="1.1" xmlns="http://www.w3.org/2000/svg" width="1000" height="1000">
<path d="M0 0 C330 0 660 0 1000 0 C1000 330 1000 660 1000 1000 C670 1000 340 1000 0 1000 C0 670 0 340 0 0 Z " fill="#FEFEFE" transform="translate(0,0)"/>
<path d="M0 0 C330 0 660 0 1000 0 C1000 330 1000 660 1000 1000 C862.39 1000 724.78 1000 583 1000 C583 999.67 583 999.34 583 999 C584.23411621 998.79020508 584.23411621 998.79020508 585.49316406 998.57617188 C605.06622802 995.20094432 624.02909671 990.98270366 643 985 C643.64388672 984.79848328 644.28777344 984.59696655 644.95117188 984.38934326 C665.43547815 977.97490814 685.33928519 970.62835764 705 962 C705.83901855 961.63310059 706.67803711 961.26620117 707.54248047 960.88818359 C720.0844934 955.34548406 732.0424959 948.69123453 744 942 C744.80695312 941.55285645 745.61390625 941.10571289 746.4453125 940.64501953 C765.98493593 929.79284991 784.57196365 917.36613009 802.09912109 903.49951172 C803.98954124 902.00825041 805.89287311 900.53520442 807.80078125 899.06640625 C814.00876734 894.27059718 820.00465145 889.34722468 825.78515625 884.03515625 C827.76565997 882.21532831 829.77626277 880.44433669 831.8125 878.6875 C843.88533358 868.1450256 855.91137999 857.19487124 866.30859375 844.96875 C868.23867842 842.72218493 870.24418139 840.55416096 872.25 838.375 C877.2918172 832.78053841 881.89119697 826.89102233 886.49023438 820.93359375 C888.00829137 818.98938104 889.55465633 817.07123185 891.109375 815.15625 C906.43095097 796.12540825 920.0675965 775.39924286 931.87353516 754.01611328 C932.95290966 752.0842809 934.06757674 750.17892727 935.19921875 748.27734375 C947.36685077 727.65322112 956.40223568 705.29728009 964.87207031 682.95800781 C965.828512 680.44972913 966.80715158 677.95305543 967.8046875 675.4609375 C971.79335557 665.39334996 974.55834421 655.08157028 977.29736328 644.61767578 C977.92126646 642.29332212 978.58362311 639.9878727 979.27734375 637.68359375 C986.34626137 614.03734929 990.43748591 588.94722584 993.125 564.4375 C993.20073242 563.75461914 993.27646484 563.07173828 993.35449219 562.36816406 C994.97646026 546.42003459 995.18644562 530.4426572 995.18530273 514.42626953 C995.187479 511.03274788 995.20568306 507.63955791 995.22460938 504.24609375 C995.26435278 488.74357118 994.42907908 473.43377267 993 458 C992.93547638 457.27850769 992.87095276 456.55701538 992.80447388 455.81365967 C991.3225692 439.30055011 988.57018931 423.17979409 985 407 C984.62101563 405.24429688 984.62101563 405.24429688 984.234375 403.453125 C970.25758296 339.05025973 943.38094892 277.64467838 905 224 C904.42362793 223.19304687 903.84725586 222.38609375 903.25341797 221.5546875 C896.66501849 212.3744552 889.90793508 203.42619623 882.49609375 194.89453125 C880.17838314 192.20685744 877.95919807 189.46442495 875.75 186.6875 C866.58243416 175.46290084 856.27974552 165.19669316 846.0625 154.9375 C844.89195068 153.75994141 844.89195068 153.75994141 843.69775391 152.55859375 C839.5081124 148.38057772 835.23327137 144.36799237 830.7487793 140.50805664 C828.57888876 138.63685549 826.47969893 136.69397647 824.375 134.75 C818.75650395 129.68821469 812.86113895 125.03448961 806.86523438 120.43261719 C805.63987525 119.49146439 804.41712733 118.54690017 803.19726562 117.59863281 C751.94467222 77.78783458 693.10515995 50.09371264 631 32 C629.77555176 31.63914307 629.77555176 31.63914307 628.52636719 31.27099609 C585.02605808 18.5965794 539.66049382 14.87369148 494.5625 14.75 C493.47355438 14.74464233 492.38460876 14.73928467 491.26266479 14.73376465 C468.17089211 14.64756802 445.60854928 16.56043257 422.8125 20.1875 C421.84575348 20.33928711 420.87900696 20.49107422 419.88296509 20.64746094 C403.33909385 23.26087541 387.15610617 26.54039707 371 31 C369.94103516 31.28875 368.88207031 31.5775 367.79101562 31.875 C316.83896252 45.88759656 267.69766035 68.2517425 224 98 C223.15034668 98.57782227 222.30069336 99.15564453 221.42529297 99.75097656 C210.63607606 107.12364167 200.14960342 114.7702459 190 123 C188.57494141 124.13501953 188.57494141 124.13501953 187.12109375 125.29296875 C181.2010003 130.0509386 175.57400002 135.05274964 170.01953125 140.2265625 C167.86612461 142.22880237 165.6579981 144.14943856 163.421875 146.05859375 C158.07741553 150.71685884 153.10061099 155.74980413 148.09985352 160.76977539 C146.4407268 162.43426277 144.77631949 164.09333447 143.11132812 165.75195312 C137.53125385 171.32822427 132.0881115 176.96558438 127 183 C126.12324911 184.00985603 125.24569189 185.01901278 124.3671875 186.02734375 C117.50927299 194.03541007 111.03795431 202.29333351 104.70898438 210.72460938 C103.55996067 212.25445237 102.40755601 213.78176128 101.25195312 215.30664062 C92.52290643 226.83284041 84.43944631 238.60092282 77 251 C76.41605469 251.97324219 75.83210938 252.94648438 75.23046875 253.94921875 C41.37506527 310.75502207 18.12440843 373.3132765 9.25 438.9375 C9.14876831 439.68607269 9.04753662 440.43464539 8.9432373 441.2059021 C8.34531328 445.68706256 7.7890319 450.17175349 7.2701416 454.66275024 C7.08853494 456.23400072 6.90283905 457.80478343 6.71325684 459.37509155 C4.84830293 475.06284231 4.68330338 490.6531006 4.75 506.4375 C4.75276947 507.71758942 4.75553894 508.99767883 4.75839233 510.31655884 C4.80571078 528.94852297 5.06304586 547.45443272 7 566 C7.09120117 566.94359375 7.18240234 567.8871875 7.27636719 568.859375 C9.77742662 593.9928284 15.09816894 619.39159888 22.28808594 643.58935547 C22.98854421 645.96120904 23.65736061 648.34008026 24.3203125 650.72265625 C32.53706923 679.75877697 44.00539419 708.17637242 57.92822266 734.93017578 C59.12769098 737.24659775 60.30366555 739.57432978 61.48046875 741.90234375 C77.60059043 773.53372297 98.09518153 802.90827923 121 830 C121.42635742 830.50982422 121.85271484 831.01964844 122.29199219 831.54492188 C135.44305168 847.25955877 149.37486519 862.9404337 164.984375 876.265625 C167.30114621 878.25912581 169.55419984 880.31554388 171.8125 882.375 C176.54749792 886.63721447 181.39319126 890.72329649 186.37402344 894.6953125 C187.49197846 895.5923623 188.60432999 896.49642623 189.71191406 897.40625 C238.70006799 937.62314174 298.02478153 968.69488739 359 986 C359.92490234 986.26973633 360.84980469 986.53947266 361.80273438 986.81738281 C379.67918717 992.00490091 397.70158752 995.69321284 416 999 C416 999.33 416 999.66 416 1000 C278.72 1000 141.44 1000 0 1000 C0 670 0 340 0 0 Z " fill="#FEFEFE" transform="translate(0,0)"/>
<path d="M0 0 C1.69638107 0.00465271 1.69638107 0.00465271 3.42703247 0.00939941 C72.9018394 0.23195162 140.69535457 13.27422631 204.4375 41.25 C206.06969482 41.9610791 206.06969482 41.9610791 207.73486328 42.68652344 C222.67520738 49.24249445 236.95274659 56.60687222 251.02832031 64.85009766 C253.08629011 66.04592243 255.15494291 67.21185869 257.2421875 68.35546875 C278.21102025 79.92533058 297.77653634 94.28628555 316.4375 109.25 C317.39527344 110.01183594 318.35304688 110.77367188 319.33984375 111.55859375 C325.70691494 116.68330958 331.72950142 122.09822254 337.70825195 127.66430664 C339.00901418 128.85708522 340.32221792 130.03631792 341.64135742 131.20874023 C347.68944031 136.58434858 353.4980606 142.15452344 359.20678711 147.88891602 C360.63087492 149.31839717 362.06028044 150.74240511 363.49023438 152.16601562 C368.68304623 157.36606485 373.67583799 162.65400041 378.4375 168.25 C379.38661454 169.333265 380.33708218 170.41534635 381.2890625 171.49609375 C389.08957426 180.43878853 396.36160877 189.72613101 403.4375 199.25 C403.98583496 199.98798828 404.53416992 200.72597656 405.09912109 201.48632812 C448.10157722 259.63120566 477.15193676 325.68912479 492.4375 396.25 C492.62650879 397.12221191 492.81551758 397.99442383 493.01025391 398.89306641 C495.60214704 411.18758388 497.18316842 423.59100433 498.625 436.0625 C498.70985657 436.79031677 498.79471313 437.51813354 498.88214111 438.26800537 C501.10574924 457.55180162 501.64033366 476.65826839 501.625 496.0625 C501.62506042 497.23542603 501.62512085 498.40835205 501.62518311 499.61682129 C501.61248132 516.92137329 501.2438091 534.02877807 499.4375 551.25 C499.2910591 552.81634957 499.14518633 554.3827524 499 555.94921875 C497.98259183 566.21358244 496.03457089 576.28505023 494.00390625 586.38867188 C493.41889563 589.34398415 492.86345142 592.30378614 492.3125 595.265625 C489.49680997 610.18079108 485.7919009 624.71213248 481.4375 639.25 C481.13158936 640.2802832 480.82567871 641.31056641 480.51049805 642.37207031 C478.05605621 650.5120086 475.29874276 658.51736793 472.375 666.5 C472.13961517 667.1428595 471.90423035 667.78571899 471.66171265 668.44805908 C465.02957922 686.48988187 457.38534793 704.12411224 448.50927734 721.18017578 C447.30980902 723.49659775 446.13383445 725.82432978 444.95703125 728.15234375 C428.83690957 759.78372297 408.34231847 789.15827923 385.4375 816.25 C385.01114258 816.75982422 384.58478516 817.26964844 384.14550781 817.79492188 C370.68966343 833.87375633 356.40820363 849.93435443 340.41796875 863.55078125 C338.11080048 865.53030432 335.87103218 867.5764212 333.625 869.625 C328.37295117 874.3526385 322.96083513 878.84454022 317.4375 883.25 C316.81407715 883.75128418 316.1906543 884.25256836 315.54833984 884.76904297 C288.21633566 906.68837982 258.214931 926.00979639 226.609375 941.19433594 C224.23723114 942.34734291 221.88483315 943.53615065 219.53125 944.7265625 C193.63353892 957.66358179 166.2339429 967.29095877 138.4375 975.25 C137.43219238 975.53955566 136.42688477 975.82911133 135.39111328 976.12744141 C128.77729774 978.00746025 122.12652674 979.6601539 115.4375 981.25 C114.4989898 981.47477744 113.5604796 981.69955488 112.5935297 981.93114376 C92.65726353 986.54925351 73.34478791 987.01302506 52.99858379 986.95455909 C49.40881499 986.94729533 45.81914841 986.95601519 42.22938752 986.96446449 C33.73729908 986.98424152 25.24549324 986.97905109 16.75341797 986.95678711 C8.09233521 986.93446101 -0.5680005 986.95201646 -9.22901273 986.98983639 C-16.75784892 987.02141479 -24.28645818 987.02888364 -31.8153522 987.01788265 C-36.27119887 987.01150391 -40.72661705 987.0128603 -45.18241119 987.03720665 C-116.14749219 987.38339085 -187.24147803 960.65039281 -247.5625 924.25 C-248.61751709 923.61698975 -248.61751709 923.61698975 -249.69384766 922.97119141 C-271.8557054 909.60632616 -293.50629684 894.65100337 -313 877.60644531 C-314.6223266 876.19806303 -316.26159843 874.81191483 -317.90625 873.4296875 C-333.34540728 860.4197759 -348.76991733 846.62447071 -361.87109375 831.21875 C-363.80117842 828.97218493 -365.80668139 826.80416096 -367.8125 824.625 C-372.8543172 819.03053841 -377.45369697 813.14102233 -382.05273438 807.18359375 C-383.57079137 805.23938104 -385.11715633 803.32123185 -386.671875 801.40625 C-406.81874994 776.38576153 -424.74232105 748.40878459 -438.53027344 719.39990234 C-439.69721759 716.9694127 -440.89885344 714.55751638 -442.1015625 712.14453125 C-449.01052792 698.15664726 -454.86551024 683.86932575 -460.40234375 669.28857422 C-461.3726805 666.74715772 -462.3641189 664.21686209 -463.375 661.69140625 C-467.36307262 651.62490048 -470.12563924 641.31279066 -472.86425781 630.85009766 C-473.47442756 628.57796204 -474.12253436 626.3255438 -474.8046875 624.07421875 C-481.27839784 602.55756668 -485.23496386 580.09482974 -487.9375 557.8125 C-488.0929126 556.54269287 -488.2483252 555.27288574 -488.40844727 553.96459961 C-490.65591082 534.12762121 -490.83549291 514.19412011 -490.875 494.25 C-490.87761841 492.97575165 -490.88023682 491.7015033 -490.88293457 490.38864136 C-490.88725157 470.69216547 -489.99382755 451.47238106 -487.11376953 431.99121094 C-486.5826131 428.38649829 -486.10962946 424.77879717 -485.65234375 421.1640625 C-479.38318429 373.27359919 -464.07774979 326.84741255 -443.5625 283.25 C-443.08731934 282.23776367 -442.61213867 281.22552734 -442.12255859 280.18261719 C-426.02913973 246.22909197 -405.43275825 214.25689611 -381.5625 185.25 C-380.84835937 184.363125 -380.13421875 183.47625 -379.3984375 182.5625 C-375.0507697 177.1839419 -370.58733587 171.95047903 -365.921875 166.8449707 C-364.46979758 165.2478959 -363.0259145 163.64326868 -361.59594727 162.02636719 C-355.83360817 155.51886816 -349.7973135 149.33052338 -343.6418457 143.19897461 C-341.99508596 141.55760204 -340.35377905 139.91091181 -338.71289062 138.26367188 C-333.16843838 132.71540757 -327.55258089 127.31995073 -321.5625 122.25 C-320.47899887 121.30115503 -319.39691918 120.35068394 -318.31640625 119.3984375 C-247.22157661 57.38260228 -158.77433384 19.03606511 -66 4.5625 C-64.72431152 4.35995605 -63.44862305 4.15741211 -62.13427734 3.94873047 C-41.48104608 0.83894467 -20.86644292 -0.10266393 0 0 Z M-55.5625 47.25 C-56.635 47.39453613 -57.7075 47.53907227 -58.8125 47.68798828 C-125.9261061 56.88149349 -192.8675078 81.33678834 -248.5625 120.25 C-249.8854029 121.16017625 -251.20832071 122.07033084 -252.53125 122.98046875 C-261.61929883 129.2748185 -270.36179811 135.89183639 -278.90917969 142.90087891 C-280.40022233 144.11758027 -281.90628233 145.31582187 -283.4140625 146.51171875 C-295.63052729 156.25966484 -306.69705138 167.28623507 -317.77410889 178.28637695 C-318.86638003 179.37059223 -319.96012591 180.45332423 -321.05548096 181.53442383 C-327.30671765 187.71284037 -333.18711253 193.96852269 -338.64770508 200.86767578 C-340.47756653 203.1443286 -342.38886875 205.29697659 -344.375 207.4375 C-350.25380081 213.99148982 -355.38254178 221.14129954 -360.5625 228.25 C-361.06330078 228.93658691 -361.56410156 229.62317383 -362.08007812 230.33056641 C-375.02336706 248.16344852 -386.3385006 266.73456112 -396.5625 286.25 C-397.03574707 287.15121582 -397.50899414 288.05243164 -397.99658203 288.98095703 C-422.71448727 336.37615288 -437.95458965 387.47670534 -444.17700195 440.48632812 C-444.5625 443.25 -444.5625 443.25 -445.06736755 445.17121887 C-445.56190684 447.24750967 -445.76111676 449.14492068 -445.87011719 451.27416992 C-445.91082336 452.0672908 -445.95152954 452.86041168 -445.99346924 453.67756653 C-446.03171814 454.54064926 -446.06996704 455.40373199 -446.109375 456.29296875 C-446.15100769 457.21168259 -446.19264038 458.13039642 -446.23553467 459.07695007 C-450.13941626 553.12051934 -433.14714961 642.61856499 -358.5625 763.25 C-357.97549316 764.02633789 -357.38848633 764.80267578 -356.78369141 765.60253906 C-350.70012194 773.61314136 -344.58951422 781.55369318 -337.72265625 788.9140625 C-335.8561328 790.93247303 -334.04289098 792.98124208 -332.23828125 795.0546875 C-269.74358247 866.66960506 -183.46409704 915.34513778 -33.12307739 944.03858948 C-27.05119269 944.39910975 -20.98360438 944.45234712 -14.90234375 944.48828125 C-14.22541788 944.49318762 -13.54849201 944.49809399 -12.85105324 944.50314903 C30.46542797 945.01931398 30.46542797 945.01931398 73.4375 940.25 C74.21899414 940.11188904 75.00048828 939.97377808 75.80566406 939.83148193 C96.3253086 936.16862855 116.62087592 931.7756182 136.4375 925.25 C137.55705078 924.88680664 138.67660156 924.52361328 139.83007812 924.14941406 C162.27723174 916.8196067 184.3352233 908.37168567 205.26708984 897.38232422 C207.82102122 896.04991322 210.3888786 894.74618997 212.95703125 893.44140625 C224.47973689 887.55385779 235.62840674 881.36328026 246.4375 874.25 C247.47777344 873.57453125 248.51804687 872.8990625 249.58984375 872.203125 C273.19916419 856.69108792 296.00080326 839.06870557 315.79296875 818.859375 C317.44210714 817.24549135 319.1579722 815.78031451 320.9375 814.3125 C324.19233444 811.57959892 326.88293691 808.54382266 329.62890625 805.30859375 C331.44035098 803.24675493 333.34131369 801.34623288 335.3125 799.4375 C339.20432409 795.59796529 342.61858867 791.47434662 346.03515625 787.2109375 C348.08604243 784.68317859 350.18969758 782.21579642 352.32617188 779.76049805 C359.61264979 771.34106168 366.08222325 762.38490974 372.4375 753.25 C372.99840332 752.445625 373.55930664 751.64125 374.13720703 750.8125 C413.31687229 694.26314586 438.28415229 629.90344067 449.125 562.125 C449.42869507 560.252677 449.42869507 560.252677 449.73852539 558.3425293 C452.96468092 537.47808449 453.80927371 516.78467141 453.75 495.6875 C453.74826279 493.76969223 453.74826279 493.76969223 453.74649048 491.81314087 C453.71351661 473.41271241 453.14984307 455.46822038 450.4375 437.25 C450.1915211 435.37158634 449.94926832 433.4926806 449.7109375 431.61328125 C440.90872051 363.94130248 415.62803065 297.21633334 376.4375 241.25 C375.97794922 240.59354492 375.51839844 239.93708984 375.04492188 239.26074219 C367.71033221 228.8302625 360.00836741 218.79032407 351.86425781 208.98095703 C350.60892258 207.45797161 349.37676912 205.91594085 348.1484375 204.37109375 C333.49503515 185.95829792 316.30369908 167.46697124 297.71484375 153.03125 C295.47535561 151.27960919 293.40160935 149.4271935 291.3125 147.5 C272.61005177 130.75055078 251.13194802 116.75453173 229.4375 104.25 C228.71449707 103.82799316 227.99149414 103.40598633 227.24658203 102.97119141 C179.45103997 75.14464225 125.9354929 57.06975914 71.4375 48.25 C70.27347656 48.05100098 69.10945312 47.85200195 67.91015625 47.64697266 C28.0752561 41.04566795 -15.63817169 41.57507651 -55.5625 47.25 Z " fill="#020202" transform="translate(494.5625,13.75)"/>
<path d="M0 0 C0.64709869 -0.00170885 1.29419739 -0.0034177 1.96090513 -0.00517833 C4.1089456 -0.00844803 6.25666712 0.00248825 8.40467834 0.01345825 C9.95248914 0.01402291 11.50030047 0.01370473 13.04811096 0.01257324 C17.23562673 0.01200087 21.42302725 0.02373643 25.61051631 0.03772116 C29.99205738 0.05024781 34.37360126 0.05140054 38.75515747 0.05377197 C47.04582769 0.05998106 55.33644499 0.07638414 63.62709194 0.09647095 C73.0684215 0.11884774 82.50975361 0.12982786 91.95110309 0.13986182 C111.36672911 0.16075087 130.78230591 0.19591574 150.19789124 0.24050903 C154.09895545 18.55020469 152.25780793 38.63366379 152.17172813 57.29177856 C151.91342367 113.73054524 152.71944779 170.15431386 153.48670959 226.58621216 C153.49832158 227.4413676 153.50993357 228.29652304 153.52189744 229.17759228 C153.63286314 237.34601727 153.74428321 245.5144331 153.86055237 253.68278456 C153.90257658 256.6427586 153.94388363 259.60274243 153.98509228 262.56272793 C154.01300882 264.54733459 154.04196314 266.53192658 154.07096767 268.51651764 C154.41122691 293.03503582 154.41122691 293.03503582 153.39320374 304.07254028 C153.3091629 305.03343063 153.22512207 305.99432098 153.13853455 306.98432922 C152.96148108 308.99518867 152.78154377 311.00579621 152.59877014 313.0161438 C152.3244049 316.03634671 152.05919589 319.05724425 151.79554749 322.07839966 C151.00258932 331.06357359 150.15827725 340.04089367 149.12757874 349.00222778 C149.04879486 349.69870926 148.97001099 350.39519073 148.88883972 351.11277771 C148.54742937 353.97322506 148.11248863 356.49671685 147.19789124 359.24050903 C146.53789124 359.24050903 145.87789124 359.24050903 145.19789124 359.24050903 C145.02515686 360.10546997 144.85242249 360.97043091 144.67445374 361.86160278 C134.59693609 407.02552361 106.18353851 449.71159592 68.19789124 476.24050903 C67.4029425 476.81792847 67.4029425 476.81792847 66.5919342 477.40701294 C48.39950988 490.61875576 27.91757039 500.04034435 6.74232483 507.35623169 C4.58615667 508.10557357 2.44733451 508.88573431 0.31117249 509.68972778 C-7.90406626 512.65920405 -16.29033666 514.62382449 -24.80210876 516.55300903 C-25.97298035 516.82008667 -27.14385193 517.08716431 -28.35020447 517.36233521 C-38.35985296 519.55201341 -44.88080421 520.07530985 -54.11070251 515.13113403 C-59.17682671 511.57234722 -60.16185217 507.63010274 -61.26695251 501.77957153 C-61.52437264 498.77182055 -61.27942656 496.22558112 -60.80210876 493.24050903 C-60.70252869 492.59001587 -60.60294861 491.93952271 -60.50035095 491.26931763 C-59.49902665 485.89869115 -57.97321466 480.9648723 -53.80210876 477.24050903 C-46.92185826 474.19251552 -39.21119693 473.61495996 -31.81285095 472.67947388 C-27.89149436 472.10774187 -24.23871152 471.1261823 -20.48960876 469.86550903 C-19.25597595 469.45171997 -18.02234314 469.03793091 -16.75132751 468.61160278 C-16.12274841 468.39230103 -15.49416931 468.17299927 -14.84654236 467.947052 C-12.55485291 467.15505902 -10.25160995 466.40309742 -7.94664001 465.65066528 C2.95061096 462.03697746 13.11857672 457.72772387 23.19789124 452.24050903 C23.80858459 451.91437622 24.41927795 451.58824341 25.04847717 451.25222778 C37.71898558 444.46034821 48.76293998 436.10414251 59.19789124 426.24050903 C60.00871155 425.49414185 60.81953186 424.74777466 61.65492249 423.97879028 C89.24016352 397.69678899 102.51282979 359.00960571 108.19789124 322.24050903 C108.4054303 320.98625122 108.61296936 319.73199341 108.82679749 318.43972778 C110.03471873 310.03496109 110.33175533 301.74936162 110.30726624 293.26394653 C110.30524704 292.00039841 110.30322784 290.73685028 110.30114746 289.43501282 C110.22956002 266.80560737 109.72824323 244.17681378 109.33026886 221.5514679 C109.21235441 214.8043 109.09794858 208.057073 108.98353577 201.30984497 C108.93771036 198.60986308 108.89186712 195.90988149 108.84602356 193.2098999 C108.83474206 192.54525384 108.82346056 191.88060778 108.8118372 191.19582093 C108.71076386 185.24359629 108.6089403 179.29138458 108.50702667 173.33917427 C107.89904027 137.82787727 107.89904027 137.82787727 107.63487244 120.90881348 C107.59496347 118.38586321 107.55382162 115.86293198 107.51115417 113.34002686 C107.12221709 90.30720101 107.15963045 67.2758578 107.19789124 44.24050903 C106.32106501 44.2446571 106.32106501 44.2446571 105.42652512 44.24888897 C91.10752504 44.31556188 76.78853897 44.36498831 62.46941757 44.39594555 C55.54437891 44.4113197 48.61944477 44.43222471 41.69447327 44.46682739 C34.99654476 44.50027922 28.29874658 44.51742239 21.6007309 44.52514076 C19.06060846 44.53063279 16.52049113 44.54135529 13.98041534 44.5576992 C2.23997997 44.63015532 -9.47680719 44.62587748 -21.14878845 43.22219849 C-21.9468755 43.14752696 -22.74496254 43.07285543 -23.56723404 42.99592113 C-28.19832296 42.31808037 -30.38123198 41.07320233 -33.2931366 37.35298157 C-37.38687575 31.41787635 -36.95038595 25.15283553 -35.80210876 18.24050903 C-34.27423963 14.97419905 -32.4042459 12.70537746 -29.80210876 10.24050903 C-28.89138611 9.21377075 -28.89138611 9.21377075 -27.96226501 8.16629028 C-25.39890141 5.88104931 -23.26261526 5.11547764 -19.98960876 4.11550903 C-18.4949408 3.64757935 -18.4949408 3.64757935 -16.97007751 3.17019653 C-15.92464783 2.86339966 -14.87921814 2.55660278 -13.80210876 2.24050903 C-12.18203997 1.72418757 -12.18203997 1.72418757 -10.52924252 1.19743538 C-6.84049113 0.25036355 -3.79643553 -0.00607916 0 0 Z " fill="#020202" transform="translate(286.80210876464844,257.7594909667969)"/>
<path d="M0 0 C0.72977051 0.24790283 1.45954102 0.49580566 2.21142578 0.7512207 C6.45234864 2.28773742 10.06594494 3.80581535 13.1875 7.1875 C14.10055719 11.79748107 13.54643918 16.51684559 13.1875 21.1875 C13.11136475 22.18209229 13.11136475 22.18209229 13.03369141 23.19677734 C12.58513422 28.5499025 11.90991502 33.86527872 11.1875 39.1875 C11.06391113 40.12529297 10.94032227 41.06308594 10.81298828 42.02929688 C5.13253291 84.14040606 -9.73718995 125.69133336 -37.8125 158.1875 C-38.49441406 158.97898437 -39.17632813 159.77046875 -39.87890625 160.5859375 C-42.14921509 163.1608495 -44.46675291 165.68113647 -46.8125 168.1875 C-47.68390625 169.12464844 -48.5553125 170.06179688 -49.453125 171.02734375 C-78.42883553 201.4760535 -117.96824593 218.35456228 -157.8125 229.1875 C-157.2769751 229.39729492 -156.7414502 229.60708984 -156.18969727 229.82324219 C-104.29511337 250.28500522 -58.92973986 279.44066023 -29.8125 328.1875 C-29.47009277 328.75484863 -29.12768555 329.32219727 -28.77490234 329.90673828 C-22.37596292 340.58480967 -17.35372188 351.60764488 -12.8125 363.1875 C-12.35101562 364.34507812 -11.88953125 365.50265625 -11.4140625 366.6953125 C-5.02678739 383.57887411 -1.08486202 401.31209126 1.1875 419.1875 C1.3419458 420.29931641 1.3419458 420.29931641 1.49951172 421.43359375 C2.97792865 432.21459303 3.52786804 443.07195914 3.75869751 453.94546509 C3.79435262 455.38985081 3.84332931 456.83397364 3.90609741 458.2774353 C4.38069644 469.80076652 4.38069644 469.80076652 1.46557617 473.1887207 C-0.60354275 474.50586323 -2.49832428 475.39227374 -4.8125 476.1875 C-5.781875 476.620625 -6.75125 477.05375 -7.75 477.5 C-15.43951457 479.22621756 -22.78676672 477.83542153 -30.375 476.1875 C-31.28830078 475.99671875 -32.20160156 475.8059375 -33.14257812 475.609375 C-35.36770087 475.14338071 -37.59076276 474.66933025 -39.8125 474.1875 C-39.83437378 472.97525757 -39.83437378 472.97525757 -39.85668945 471.73852539 C-40.65060405 432.05682233 -45.002013 393.44276655 -63.90869141 357.90234375 C-64.70811175 356.38556135 -65.47206452 354.85020113 -66.23046875 353.3125 C-87.67122017 311.05975821 -131.82416506 284.54333246 -175.265625 270.03417969 C-186.36343379 266.4489709 -197.54897039 263.20823698 -208.8125 260.1875 C-211.81468742 247.28524215 -212.12252037 234.49452225 -212.125 221.3125 C-212.12822266 220.45863708 -212.13144531 219.60477417 -212.13476562 218.72503662 C-212.14044696 216.25655493 -212.13015121 213.7887337 -212.11328125 211.3203125 C-212.11407181 210.57509338 -212.11486237 209.82987427 -212.11567688 209.06207275 C-212.06135193 205.02336617 -211.73882343 201.77334072 -209.8125 198.1875 C-207.6875 196.875 -207.6875 196.875 -205.8125 196.1875 C-205.8125 195.5275 -205.8125 194.8675 -205.8125 194.1875 C-205.09408936 194.06221924 -204.37567871 193.93693848 -203.63549805 193.80786133 C-165.50153602 187.10195286 -127.05073525 177.24560356 -95.8125 153.1875 C-94.82507813 152.43984375 -93.83765625 151.6921875 -92.8203125 150.921875 C-59.54939571 124.71984988 -40.68222535 84.61637307 -34.1875 43.375 C-34.08233063 42.72038788 -33.97716125 42.06577576 -33.86880493 41.3913269 C-31.73815111 28.04939956 -30.55472769 14.6779663 -29.8125 1.1875 C-28.0802892 0.34815999 -26.34212663 -0.47890388 -24.6015625 -1.30078125 C-23.63428223 -1.76266846 -22.66700195 -2.22455566 -21.67041016 -2.70043945 C-14.28000036 -5.57617127 -7.13475429 -2.42399676 0 0 Z " fill="#010101" transform="translate(745.8125,265.8125)"/>
<path d="M0 0 C4.01665545 -0.12238961 8.03282628 -0.19627611 12.05078125 -0.26171875 C13.74902039 -0.31434875 13.74902039 -0.31434875 15.48156738 -0.36804199 C23.94402884 -0.47141208 28.43038832 0.61972308 34.66796875 6.54296875 C35.43753906 7.35378906 36.20710938 8.16460937 37 9 C38.02287098 9.7125624 39.04574195 10.4251248 40.09960902 11.15928 C42.79994532 13.40656751 42.98242057 13.91471067 43.74519098 17.61541015 C43.77353499 19.0461783 43.76892318 20.47783031 43.73828697 21.90855122 C43.74867157 23.09991081 43.74867157 23.09991081 43.75926596 24.31533828 C43.77520054 26.98777884 43.74819394 29.6580681 43.7215271 32.33039856 C43.72414268 34.26100078 43.72939455 36.19160094 43.7370621 38.1221897 C43.75050695 43.43569954 43.72643975 48.74848661 43.69639373 54.06190431 C43.67053147 59.78852304 43.67924776 65.51509957 43.68380737 71.24176025 C43.68695657 81.16632084 43.66809949 91.09064511 43.63438034 101.01514626 C43.58565967 115.36434481 43.56999591 129.71342888 43.56245239 144.06270119 C43.54931408 167.34224105 43.50941812 190.62165204 43.45263672 213.90112305 C43.39753596 236.51765284 43.35503145 259.13414896 43.32958984 281.75073242 C43.32840611 282.79633214 43.32840611 282.79633214 43.32719846 283.86305509 C43.31928738 290.8632445 43.31163249 297.86343418 43.3041653 304.86362408 C43.24151228 363.57583242 43.13562868 422.28791552 43 481 C41.95199219 481.55429687 40.90398438 482.10859375 39.82421875 482.6796875 C38.44526849 483.41137539 37.06636466 484.1431508 35.6875 484.875 C34.65206055 485.42220703 34.65206055 485.42220703 33.59570312 485.98046875 C32.92861328 486.33496094 32.26152344 486.68945312 31.57421875 487.0546875 C30.96151123 487.37937012 30.34880371 487.70405273 29.7175293 488.03857422 C28.09741352 488.94547058 26.54484566 489.9701029 25 491 C21.875 491.6875 21.875 491.6875 18 491 C9.57741233 485.29784667 1.75880616 473.73347466 -0.51314159 463.74371529 C-1.29848496 457.97449444 -1.17105385 452.19354889 -1.08229065 446.38476562 C-1.08622358 444.44878818 -1.09411895 442.51281549 -1.10559314 440.57686806 C-1.12557418 435.29925844 -1.08992158 430.02331449 -1.04459059 424.74591684 C-1.00552504 419.03926364 -1.01889077 413.33269545 -1.02571106 407.62594604 C-1.03041774 397.75274613 -1.00231212 387.88008376 -0.95157051 378.00701904 C-0.87825619 363.73252892 -0.8549701 349.45829727 -0.84367859 335.18363929 C-0.82400761 312.02103486 -0.76426354 288.85873567 -0.67895508 265.69628906 C-0.59620888 243.20346557 -0.53249885 220.71071878 -0.49438477 198.21777344 C-0.49320103 197.5236478 -0.49201729 196.82952217 -0.49079769 196.11436242 C-0.47893034 189.14325253 -0.46744811 182.17214206 -0.45624795 175.20103107 C-0.3623825 116.80049732 -0.20366196 58.4002518 0 0 Z " fill="#010101" transform="translate(473,259)"/>
<path d="M0 0 C4.95 0 9.9 0 15 0 C15.24234375 1.17175781 15.4846875 2.34351563 15.734375 3.55078125 C16.07250395 5.13810881 16.41106935 6.72534343 16.75 8.3125 C16.90726562 9.07884766 17.06453125 9.84519531 17.2265625 10.63476562 C18.13830729 14.86035204 19.26233199 18.58551596 21.04675293 22.52348328 C24.23606525 31.25608393 23.55774136 40.46775056 23.51757812 49.63598633 C23.52300551 51.72011808 23.53013162 53.80424599 23.53881836 55.8883667 C23.5569936 61.52753877 23.55000474 67.16641677 23.53730202 72.80559373 C23.52712948 78.73300828 23.53658084 84.66039872 23.54284668 90.58781433 C23.55011697 100.55167115 23.54055808 110.51540927 23.52148438 120.47924805 C23.49978269 131.94724094 23.50672073 143.41494858 23.52879 154.88293439 C23.54704045 164.76709463 23.54945354 174.65116977 23.53903532 184.53534144 C23.53284461 190.42128607 23.53184007 196.3070975 23.54518127 202.19303322 C23.55687789 207.74100444 23.54846632 213.28861493 23.52560425 218.83654785 C23.5203871 220.85429477 23.52170805 222.87207292 23.53065491 224.88980675 C23.59931403 241.97144811 23.6727262 263.7696984 13 278 C8.71 278 4.42 278 0 278 C0 186.26 0 94.52 0 0 Z " fill="#000000" transform="translate(322,339)"/>
<path d="M0 0 C6.76594019 -0.11381955 13.28837062 0.11978631 20 1 C19.86553519 43.6925773 1.72047302 88.23979256 -28.1875 118.625 C-55.11408855 145.26668699 -90.89144485 158.05742319 -127.625 164.25 C-129.1721167 164.5128479 -129.1721167 164.5128479 -130.75048828 164.78100586 C-131.73259277 164.94093018 -132.71469727 165.10085449 -133.7265625 165.265625 C-135.03488037 165.47880371 -135.03488037 165.47880371 -136.36962891 165.69628906 C-139.2292016 166.02646434 -142.12142887 166 -145 166 C-145.495 155.605 -145.495 155.605 -146 145 C-143.36 144.731875 -140.72 144.46375 -138 144.1875 C-113.77630802 141.48748347 -90.32272331 135.0631571 -69 123 C-68.06542969 122.48824219 -67.13085938 121.97648437 -66.16796875 121.44921875 C-59.94523369 117.90292888 -54.45215548 113.62838744 -49 109 C-48.15179687 108.28714844 -47.30359375 107.57429688 -46.4296875 106.83984375 C-19.82584398 83.77504363 -7.15028746 48.37489834 -2.34228516 14.390625 C-1.87160983 11.10328351 -1.3120508 7.83539444 -0.75 4.5625 C-0.49907677 3.04181872 -0.24860371 1.5210622 0 0 Z " fill="#030303" transform="translate(673,269)"/>
<path d="M0 0 C44.52987394 10.01140023 84.22231368 37.78949323 108.875 75.8984375 C125.08033808 102.30445714 130.22121448 132.88679403 130.13037109 163.4206543 C130.12499696 165.56371094 130.13036173 167.70655891 130.13671875 169.84960938 C130.14020894 177.94161288 129.84342128 185.94523072 129 194 C126.97895295 193.85715908 124.95817023 193.71057617 122.9375 193.5625 C121.24947266 193.44068359 121.24947266 193.44068359 119.52734375 193.31640625 C115.99328205 192.99939739 112.51009565 192.51398482 109 192 C109.01571045 190.91396484 109.0314209 189.82792969 109.04760742 188.70898438 C109.62082807 145.20350345 107.13343705 103.81445728 78 69 C77.3709375 68.23042969 76.741875 67.46085938 76.09375 66.66796875 C57.15758142 44.15975019 28.09772228 31.18971182 0.9284668 21.74267578 C-1.12304947 20.95261217 -3.04963307 20.0119854 -5 19 C-4.39297368 12.3227105 -2.22368606 6.29872004 0 0 Z " fill="#030303" transform="translate(548,557)"/>
</svg>
