<?xml version="1.0" encoding="UTF-8"?>
<svg version="1.1" xmlns="http://www.w3.org/2000/svg" width="500" height="500">
<path d="M0 0 C0.74701172 0.16097168 1.49402344 0.32194336 2.26367188 0.48779297 C31.03831839 6.72309834 57.98002105 21.20291327 79.28125 41.45703125 C81.15358629 43.20831132 83.09178833 44.89088819 85.078125 46.51171875 C89.72277985 50.46712669 93.23717313 55.22200013 97 60 C97.80824219 60.99257812 98.61648438 61.98515625 99.44921875 63.0078125 C113.37466635 80.45287872 123.1177669 100.27865266 129.375 121.6875 C129.60155273 122.45674805 129.82810547 123.22599609 130.06152344 124.01855469 C134.13243403 138.86360459 135.52906555 153.59600802 135.375 168.9375 C135.37034729 169.76861298 135.36569458 170.59972595 135.36090088 171.45602417 C135.28183848 183.51651499 134.94591675 195.24809493 132 207 C131.70198486 208.23943359 131.70198486 208.23943359 131.39794922 209.50390625 C128.25380065 222.29717594 123.81720013 234.19352607 118 246 C117.51660156 246.99338379 117.51660156 246.99338379 117.0234375 248.00683594 C102.37075271 277.80360654 78.41079102 302.11685995 50 319 C49.42733398 319.3412793 48.85466797 319.68255859 48.26464844 320.03417969 C8.59048981 343.28684136 -39.86974433 347.88084436 -84 336.375 C-109.1388193 329.39434728 -132.66441452 316.90723205 -151.7734375 299.07421875 C-153.79952496 297.18675832 -155.87896905 295.40379289 -158 293.625 C-186.36674865 268.73289326 -203.56330198 230.80527218 -209 194 C-209.0942627 193.36731201 -209.18852539 192.73462402 -209.28564453 192.08276367 C-215.09569796 147.7486261 -203.41952824 101.11986905 -176.19677734 65.55517578 C-175.80184082 65.04196777 -175.4069043 64.52875977 -175 64 C-173.95779297 62.62134766 -173.95779297 62.62134766 -172.89453125 61.21484375 C-148.25977466 29.83210505 -113.72169717 8.94377607 -75 0 C-73.99356445 -0.24556641 -73.99356445 -0.24556641 -72.96679688 -0.49609375 C-50.34548442 -5.80584895 -22.55665269 -5.3420859 0 0 Z M-72 13 C-72.70624512 13.16097168 -73.41249023 13.32194336 -74.14013672 13.48779297 C-92.60703704 17.75506117 -110.30978171 25.3613489 -126 36 C-126.63180176 36.42587402 -127.26360352 36.85174805 -127.91455078 37.29052734 C-162.5272222 61.01091887 -186.56531015 97.72769433 -194.42504883 138.93652344 C-195.01754293 142.28316307 -195.52033333 145.63517413 -196 149 C-196.13148438 149.86109375 -196.26296875 150.7221875 -196.3984375 151.609375 C-201.50470653 191.63148365 -188.86140474 233.07669536 -164.60107422 264.83105469 C-137.81986701 298.89868043 -100.8054619 319.55282547 -58.28515625 326.6171875 C-24.70648018 330.34204442 8.41408058 324.29297411 38 308 C39.05445313 307.43539063 40.10890625 306.87078125 41.1953125 306.2890625 C53.8532222 299.24954614 64.55988981 289.93045984 75 280 C75.64453125 279.40832031 76.2890625 278.81664062 76.953125 278.20703125 C92.42869354 263.56309373 103.24475916 243.59869306 111 224 C111.48210937 222.78183594 111.96421875 221.56367188 112.4609375 220.30859375 C117.77076382 205.65025503 120.49591345 189.56093268 121 174 C121.03996094 173.16726562 121.07992188 172.33453125 121.12109375 171.4765625 C122.16249621 131.6582332 106.85743847 91.15519456 79.8125 62 C77.89024386 59.98454912 75.94610348 57.99263479 74 56 C73.30003906 55.2265625 72.60007812 54.453125 71.87890625 53.65625 C48.17211684 28.14719005 8.96880201 11.40539134 -25.61523438 9.8359375 C-41.22200196 9.37803723 -56.75008604 9.27174961 -72 13 Z " fill="#000000" transform="translate(308,79)"/>
<path d="M0 0 C1.16097702 0.00007553 2.32195404 0.00015106 3.51811218 0.00022888 C5.3979052 0.00797081 5.3979052 0.00797081 7.31567383 0.01586914 C8.59879959 0.01728409 9.88192535 0.01869904 11.20393372 0.02015686 C14.61190749 0.02397134 18.01983851 0.03379248 21.42779541 0.04486084 C24.90669171 0.05509796 28.38559493 0.05965941 31.86450195 0.06469727 C38.6880872 0.07541572 45.51164409 0.0924793 52.33520508 0.11352539 C53.21150608 3.12342414 53.44548512 5.76551367 53.41088867 8.89526367 C53.40441315 9.86446747 53.39793762 10.83367126 53.39126587 11.83224487 C53.37511734 13.42940842 53.37511734 13.42940842 53.35864258 15.05883789 C53.30611459 25.24194431 53.39100653 35.41317741 53.58115387 45.5941391 C53.62457267 47.934659 53.66564741 50.27520893 53.70599365 52.61578369 C53.87204532 62.23008207 53.87204532 62.23008207 54.05883789 71.84399414 C55.02752756 119.54970134 55.02752756 119.54970134 49.14770508 132.67602539 C48.84018311 133.40942139 48.53266113 134.14281738 48.21582031 134.8984375 C45.54873611 141.06050905 42.38272343 146.74328863 38.33520508 152.11352539 C37.75383789 152.88825195 37.1724707 153.66297852 36.57348633 154.46118164 C26.93917686 166.23644877 13.0345973 173.53898691 -1.28979492 177.92602539 C-1.99458984 178.14548828 -2.69938477 178.36495117 -3.42553711 178.59106445 C-8.3179796 180.0055539 -12.57005902 180.43092032 -17.66479492 180.11352539 C-20.22729492 178.67602539 -20.22729492 178.67602539 -21.66479492 176.11352539 C-21.74661499 172.27480069 -21.39278073 168.56949702 -19.66479492 165.11352539 C-17.82983398 164.44677734 -17.82983398 164.44677734 -15.43041992 163.85180664 C-14.11303833 163.5096814 -14.11303833 163.5096814 -12.76904297 163.16064453 C-11.35619019 162.79700806 -11.35619019 162.79700806 -9.91479492 162.42602539 C5.4996796 158.22846731 18.59509124 151.76583066 27.66723633 138.10571289 C29.62603621 134.59180021 31.1950913 131.04844553 32.64770508 127.30102539 C32.89020996 126.68622314 33.13271484 126.0714209 33.38256836 125.43798828 C38.13729788 112.31795901 37.54302394 98.65660333 37.31176758 84.93774414 C37.28554691 82.91609374 37.26028437 80.89443072 37.2359314 78.87275696 C37.16980449 73.59392093 37.09080259 68.315356 37.00897217 63.03674316 C36.92753581 57.6334053 36.85847861 52.22991012 36.78833008 46.82641602 C36.64929482 36.2552641 36.49663571 25.6843574 36.33520508 15.11352539 C35.77810349 15.115746 35.22100189 15.11796661 34.64701843 15.12025452 C28.85599406 15.14235414 23.06498165 15.1574516 17.27392578 15.16845703 C15.11181146 15.17349011 12.94970054 15.18031708 10.78759766 15.18896484 C7.68236449 15.20107518 4.57717627 15.20676391 1.47192383 15.21118164 C0.01866951 15.21892357 0.01866951 15.21892357 -1.46394348 15.2268219 C-2.36465073 15.22689743 -3.26535797 15.22697296 -4.19335938 15.22705078 C-4.98611771 15.22927139 -5.77887604 15.231492 -6.59565735 15.23377991 C-8.66479492 15.11352539 -8.66479492 15.11352539 -11.66479492 14.11352539 C-13.21066368 11.02178788 -12.95839014 8.51922987 -12.66479492 5.11352539 C-9.0839049 0.42132467 -5.64925155 -0.01225434 0 0 Z " fill="#000000" transform="translate(196.664794921875,160.886474609375)"/>
<path d="M0 0 C0.86625 0.08765625 1.7325 0.1753125 2.625 0.265625 C5 0.75 5 0.75 8 2.75 C11.34716881 18.04196729 2.69721622 38.29023689 -5.0078125 50.83984375 C-15.52195697 66.19874106 -30.50306123 75.07875386 -48 80.75 C-46.88882812 81.306875 -45.77765625 81.86375 -44.6328125 82.4375 C-36.01118333 86.83266926 -28.31038346 91.33280249 -21 97.75 C-20.17757812 98.37648438 -19.35515625 99.00296875 -18.5078125 99.6484375 C-4.03284173 111.77855319 2.86952798 132.46725087 4.75 150.6875 C4.84921417 152.37414082 4.93332385 154.0617598 5 155.75 C5.06316406 156.59691406 5.12632812 157.44382812 5.19140625 158.31640625 C5.48000889 164.11638827 5.48000889 164.11638827 3.4375 166.8125 C-1.42271523 168.68181355 -6.04498892 167.80389601 -11 166.75 C-11.09796875 165.48027344 -11.1959375 164.21054687 -11.296875 162.90234375 C-12.88268222 143.98526978 -16.06504241 124.11719961 -31 110.75 C-42.07683835 101.88243477 -54.15921011 96.64449536 -67.76953125 92.70703125 C-68.50558594 92.39121094 -69.24164063 92.07539063 -70 91.75 C-71.34632052 87.71103843 -71.18417548 83.9787853 -71.1875 79.75 C-71.19974609 78.93015625 -71.21199219 78.1103125 -71.22460938 77.265625 C-71.22654297 76.47671875 -71.22847656 75.6878125 -71.23046875 74.875 C-71.23457764 74.15570313 -71.23868652 73.43640625 -71.24291992 72.6953125 C-71 70.75 -71 70.75 -69 67.75 C-67.06738281 67.06152344 -67.06738281 67.06152344 -64.703125 66.609375 C-63.83341064 66.42979248 -62.96369629 66.25020996 -62.06762695 66.06518555 C-61.13781006 65.87867432 -60.20799316 65.69216309 -59.25 65.5 C-42.89335866 61.89467559 -27.92330662 54.94044504 -18.52734375 40.4375 C-12.08320063 29.0984451 -8.92312394 16.64861904 -8.40625 3.640625 C-7.44012287 -0.85558204 -3.67624077 -0.41576533 0 0 Z " fill="#000000" transform="translate(353,162.25)"/>
<path d="M0 0 C5.00832218 -0.44540415 8.90442817 -0.47145187 13.57647705 1.53904724 C17.34420173 5.35758032 16.79192344 10.81993465 16.81317139 15.85839844 C16.80150638 17.36401846 16.78921741 18.86963376 16.77636719 20.37524414 C16.78450001 21.96554506 16.79518458 23.55583468 16.80822754 25.14610291 C16.83556968 29.46026952 16.82498135 33.77357482 16.80595303 38.0877564 C16.79075957 42.60226461 16.80485082 47.11669921 16.81427002 51.63121033 C16.82518408 59.21138755 16.81080408 66.79121394 16.78222656 74.37133789 C16.74956117 83.13703091 16.76015864 91.90188689 16.793185 100.66755968 C16.82040428 108.19299904 16.82425979 115.71818629 16.80855298 123.24365896 C16.79919538 127.73863445 16.79796085 132.23321633 16.81777191 136.72816658 C16.83509288 140.9531776 16.82310527 145.17710817 16.78840637 149.40200233 C16.78046675 150.95320083 16.78276216 152.50449014 16.79598236 154.05565262 C16.81236174 156.17249279 16.79185448 158.2858628 16.76190186 160.40248108 C16.7596397 161.58694352 16.75737755 162.77140596 16.75504684 163.99176121 C16 167 16 167 13.11644363 169.40843868 C10 171 10 171 7.375 171.0625 C3.66178021 169.40132273 1.78710365 166.57420731 0 163 C-0.09437392 160.85883079 -0.12190064 158.71462799 -0.12025452 156.57138062 C-0.12110894 155.90405273 -0.12196337 155.23672485 -0.12284368 154.5491749 C-0.12449684 152.30277589 -0.11897979 150.05645079 -0.11352539 147.81005859 C-0.11324346 146.2038727 -0.11340137 144.59768667 -0.1139679 142.99150085 C-0.11425563 138.62191272 -0.10836274 134.25235185 -0.10139394 129.88277006 C-0.09515644 125.31968542 -0.09455629 120.75660021 -0.09336853 116.19351196 C-0.09025639 107.5485349 -0.08204456 98.90357043 -0.07201904 90.25859892 C-0.06085429 80.41835454 -0.05534654 70.57810957 -0.05032361 60.73786044 C-0.03986186 40.49189992 -0.02226467 20.24595075 0 0 Z " fill="#000000" transform="translate(261,161)"/>
<path d="M0 0 C1.98 0 3.96 0 6 0 C9.8516628 8.80234359 9.43671541 17.64605069 9.3984375 27.0625 C9.4004619 28.82169719 9.40337637 30.58089355 9.40713501 32.34008789 C9.41154116 36.01489302 9.40518268 39.68947837 9.39111328 43.36425781 C9.3740224 48.05468748 9.38387279 52.74460201 9.40183067 57.43501282 C9.4127149 61.06404441 9.40920098 64.69295558 9.4014473 68.32199097 C9.39945809 70.05060895 9.40185917 71.77923817 9.40888596 73.50784302 C9.46151127 90.08928375 9.46151127 90.08928375 6 98 C4.02 98 2.04 98 0 98 C0 65.66 0 33.32 0 0 Z " fill="#000000" transform="translate(208,188)"/>
<path d="M0 0 C2.33294775 -0.04241723 4.66702567 -0.04092937 7 0 C8 1 8 1 8.0546875 3.1953125 C7.12134697 18.41282115 1.58316869 33.75075574 -9.81640625 44.3125 C-21.73972823 53.52694561 -34.98981392 57.94665361 -50 59 C-50 56.36 -50 53.72 -50 51 C-48.25976562 50.56300781 -48.25976562 50.56300781 -46.484375 50.1171875 C-31.13837678 46.14322915 -17.11833346 41.48684305 -8.25 27.5 C-3.51975546 18.92508182 -1.50118894 9.62527028 0 0 Z " fill="#010101" transform="translate(330,164)"/>
<path d="M0 0 C14.49066579 2.83898758 27.71317402 10.80766704 36.6875 22.5625 C43.89236256 33.32857609 46.18264036 45.12201304 46.125 57.8125 C46.13080078 59.11864258 46.13080078 59.11864258 46.13671875 60.45117188 C46.13542969 61.27810547 46.13414062 62.10503906 46.1328125 62.95703125 C46.13168457 63.70960205 46.13055664 64.46217285 46.12939453 65.23754883 C46 67 46 67 45 68 C42.66702567 68.04092937 40.33294775 68.04241723 38 68 C37.94392578 66.15148437 37.94392578 66.15148437 37.88671875 64.265625 C37.37305046 50.28337617 36.14743133 38.79520889 28 27 C27.4225 26.113125 26.845 25.22625 26.25 24.3125 C18.40408118 16.24863899 8.27364224 12.07625661 -2 8 C-1.125 2.25 -1.125 2.25 0 0 Z " fill="#010101" transform="translate(287,264)"/>
<path d="M0 0 C1.65 0.33 3.3 0.66 5 1 C-0.45133359 23.29260439 -9.33543559 42.39719903 -29.3125 55.375 C-41.72451268 62.51555788 -56.55689995 67 -71 67 C-71 65.35 -71 63.7 -71 62 C-69.06060547 61.65388672 -69.06060547 61.65388672 -67.08203125 61.30078125 C-46.70700691 57.5367915 -26.83700697 51.06599992 -14.47558594 33.20605469 C-7.72711311 22.94452296 -3.68531099 11.67015148 0 0 Z " fill="#010101" transform="translate(253,282)"/>
</svg>
