<?xml version="1.0" encoding="UTF-8"?>
<svg version="1.1" xmlns="http://www.w3.org/2000/svg" width="500" height="500">
<path d="M0 0 C1.20968445 -0.0066568 2.4193689 -0.0133136 3.66571045 -0.02017212 C6.21364846 -0.03023176 8.76161246 -0.03499123 11.30957031 -0.03466797 C15.12091007 -0.03900451 18.93105454 -0.07529817 22.7421875 -0.11328125 C44.38684634 -0.21200551 65.08862154 2.45360711 85.921875 8.3359375 C86.89382813 8.6040625 87.86578125 8.8721875 88.8671875 9.1484375 C93.02300902 10.33935949 96.98012655 11.69053866 100.92578125 13.4765625 C103.47257983 14.57303155 106.06984496 15.50281295 108.671875 16.4609375 C122.69404896 21.83422165 136.05721802 28.61377119 148.921875 36.3359375 C150.22705078 37.09777344 150.22705078 37.09777344 151.55859375 37.875 C153.38558415 38.965455 155.16244705 40.13952649 156.921875 41.3359375 C156.921875 41.9959375 156.921875 42.6559375 156.921875 43.3359375 C157.63730469 43.59375 158.35273438 43.8515625 159.08984375 44.1171875 C162.09347611 45.40978515 164.55692872 46.9637084 167.234375 48.8359375 C168.11738281 49.444375 169.00039063 50.0528125 169.91015625 50.6796875 C170.90595703 51.49953125 170.90595703 51.49953125 171.921875 52.3359375 C171.921875 52.9959375 171.921875 53.6559375 171.921875 54.3359375 C172.46328125 54.573125 173.0046875 54.8103125 173.5625 55.0546875 C176.55437637 56.67941507 179.03346899 58.6861252 181.671875 60.8359375 C182.65671875 61.63 183.6415625 62.4240625 184.65625 63.2421875 C185.40390625 63.933125 186.1515625 64.6240625 186.921875 65.3359375 C186.921875 65.9959375 186.921875 66.6559375 186.921875 67.3359375 C187.581875 67.3359375 188.241875 67.3359375 188.921875 67.3359375 C188.921875 67.9959375 188.921875 68.6559375 188.921875 69.3359375 C189.581875 69.3359375 190.241875 69.3359375 190.921875 69.3359375 C190.921875 69.9959375 190.921875 70.6559375 190.921875 71.3359375 C191.581875 71.3359375 192.241875 71.3359375 192.921875 71.3359375 C192.921875 71.9959375 192.921875 72.6559375 192.921875 73.3359375 C193.52 73.6040625 194.118125 73.8721875 194.734375 74.1484375 C196.92035354 75.33511156 198.33520094 76.43192863 199.921875 78.3359375 C199.921875 78.9959375 199.921875 79.6559375 199.921875 80.3359375 C200.581875 80.3359375 201.241875 80.3359375 201.921875 80.3359375 C203.52821515 82.06985701 205.0594037 83.8740285 206.546875 85.7109375 C207.36414063 86.70867187 208.18140625 87.70640625 209.0234375 88.734375 C210.921875 91.3359375 210.921875 91.3359375 210.921875 93.3359375 C211.581875 93.3359375 212.241875 93.3359375 212.921875 93.3359375 C216.921875 98.74770221 216.921875 98.74770221 216.921875 101.3359375 C217.581875 101.3359375 218.241875 101.3359375 218.921875 101.3359375 C220.6484375 103.671875 220.6484375 103.671875 222.546875 106.7109375 C223.49433594 108.20753906 223.49433594 108.20753906 224.4609375 109.734375 C225.921875 112.3359375 225.921875 112.3359375 225.921875 114.3359375 C226.581875 114.3359375 227.241875 114.3359375 227.921875 114.3359375 C246.51804081 148.10074052 260.49881513 181.65139373 264.921875 220.3359375 C265.01686279 221.13435059 265.11185059 221.93276367 265.2097168 222.75537109 C266.11175987 231.2690541 266.1196049 239.78544479 266.109375 248.3359375 C266.10943542 249.110513 266.10949585 249.8850885 266.10955811 250.68313599 C266.09659481 262.34995004 265.66503537 273.78299186 263.921875 285.3359375 C263.76589844 286.46128906 263.60992187 287.58664062 263.44921875 288.74609375 C262.59044342 294.45442391 261.29940251 299.93517588 259.70703125 305.48046875 C258.84313959 308.62228368 258.12751841 311.78000044 257.421875 314.9609375 C256.2166221 320.23314632 254.77679288 325.26013711 252.921875 330.3359375 C252.28958984 332.12644531 252.28958984 332.12644531 251.64453125 333.953125 C248.7782655 341.94141446 245.53574495 349.50984479 241.625 357.05078125 C240.55831241 359.10831397 239.5218271 361.18210622 238.53125 363.27734375 C234.48664103 371.81983684 229.40542576 379.58273404 224.18017578 387.43457031 C223.08700911 389.08641006 222.01607955 390.75292444 220.94921875 392.421875 C220.42457031 393.23914063 219.89992188 394.05640625 219.359375 394.8984375 C218.92496094 395.58035156 218.49054688 396.26226562 218.04296875 396.96484375 C217.67300781 397.41730469 217.30304688 397.86976563 216.921875 398.3359375 C216.261875 398.3359375 215.601875 398.3359375 214.921875 398.3359375 C214.5815625 399.3878125 214.5815625 399.3878125 214.234375 400.4609375 C212.58346212 404.07722285 210.6309915 406.42363726 207.921875 409.3359375 C207.261875 409.3359375 206.601875 409.3359375 205.921875 409.3359375 C205.67308594 409.90183594 205.42429687 410.46773438 205.16796875 411.05078125 C200.16344915 420.22834853 188.69174632 431.57179214 179.921875 437.3359375 C179.261875 437.3359375 178.601875 437.3359375 177.921875 437.3359375 C177.921875 437.9959375 177.921875 438.6559375 177.921875 439.3359375 C177.261875 439.3359375 176.601875 439.3359375 175.921875 439.3359375 C175.921875 439.9959375 175.921875 440.6559375 175.921875 441.3359375 C174.57104492 442.56591797 174.57104492 442.56591797 172.65234375 443.953125 C171.93780029 444.47181152 171.22325684 444.99049805 170.48706055 445.52490234 C169.70242432 446.08129395 168.91778809 446.63768555 168.109375 447.2109375 C167.30346924 447.78666504 166.49756348 448.36239258 165.66723633 448.95556641 C131.18890066 473.3359375 131.18890066 473.3359375 121.921875 473.3359375 C121.921875 473.9959375 121.921875 474.6559375 121.921875 475.3359375 C118.59314732 476.68095388 115.25822574 478.00995195 111.921875 479.3359375 C110.87515625 479.75617188 109.8284375 480.17640625 108.75 480.609375 C102.71506436 482.99158644 96.745322 485.04440498 90.4609375 486.65625 C88.10813739 487.28607649 85.84275595 488.02611767 83.546875 488.8359375 C70.17651453 493.2725964 57.93548874 493.81042407 43.953125 493.8046875 C41.82482712 493.81180768 39.69653111 493.81950931 37.5682373 493.82775879 C33.12030703 493.84114728 28.67255405 493.84279922 24.22460938 493.83691406 C18.58469973 493.83104253 12.94565821 493.86153123 7.30591583 493.90203094 C2.91121004 493.92816353 -1.48329427 493.9307621 -5.87806702 493.92713928 C-7.95404733 493.9288087 -10.03003925 493.9382353 -12.10594177 493.95628357 C-29.35336553 494.08968925 -44.96717721 491.59047723 -61.078125 485.3359375 C-62.65533834 484.8569678 -64.23799958 484.39512068 -65.828125 483.9609375 C-71.77797928 482.22288115 -77.38872945 479.77424988 -83.078125 477.3359375 C-84.74274224 476.66416994 -86.40874607 475.99578309 -88.078125 475.3359375 C-88.078125 474.6759375 -88.078125 474.0159375 -88.078125 473.3359375 C-88.78324219 473.22378906 -89.48835937 473.11164063 -90.21484375 472.99609375 C-105.11583294 469.56053144 -118.80257452 457.87465097 -131.078125 449.3359375 C-132.1295166 448.60487793 -133.1809082 447.87381836 -134.26416016 447.12060547 C-135.77502197 446.04963623 -135.77502197 446.04963623 -137.31640625 444.95703125 C-138.23075439 444.31048584 -139.14510254 443.66394043 -140.0871582 442.99780273 C-141.07268677 442.17517944 -141.07268677 442.17517944 -142.078125 441.3359375 C-142.078125 440.6759375 -142.078125 440.0159375 -142.078125 439.3359375 C-142.738125 439.3359375 -143.398125 439.3359375 -144.078125 439.3359375 C-144.078125 438.6759375 -144.078125 438.0159375 -144.078125 437.3359375 C-144.95984375 436.92988281 -144.95984375 436.92988281 -145.859375 436.515625 C-152.21278304 433.13758059 -157.26067054 427.24590828 -162.328125 422.2109375 C-163.08899414 421.45707764 -163.08899414 421.45707764 -163.86523438 420.68798828 C-172.078125 412.43983756 -172.078125 412.43983756 -172.078125 409.3359375 C-172.738125 409.3359375 -173.398125 409.3359375 -174.078125 409.3359375 C-175.8046875 407.4375 -175.8046875 407.4375 -177.703125 404.9609375 C-178.33476562 404.14882813 -178.96640625 403.33671875 -179.6171875 402.5 C-181.078125 400.3359375 -181.078125 400.3359375 -181.078125 398.3359375 C-181.738125 398.3359375 -182.398125 398.3359375 -183.078125 398.3359375 C-184.24804688 396.95336914 -184.24804688 396.95336914 -185.546875 394.99609375 C-186.27318115 393.90772217 -186.27318115 393.90772217 -187.01416016 392.79736328 C-187.53026855 392.00571777 -188.04637695 391.21407227 -188.578125 390.3984375 C-189.10841309 389.59390137 -189.63870117 388.78936523 -190.18505859 387.96044922 C-195.43601563 379.92173417 -200.36140518 371.69824954 -205.078125 363.3359375 C-205.49835938 362.60117187 -205.91859375 361.86640625 -206.3515625 361.109375 C-207.078125 359.3359375 -207.078125 359.3359375 -207.078125 355.3359375 C-207.738125 355.3359375 -208.398125 355.3359375 -209.078125 355.3359375 C-209.39265625 354.50191406 -209.7071875 353.66789062 -210.03125 352.80859375 C-212.92637993 345.17986029 -212.92637993 345.17986029 -216.203125 337.7109375 C-218.09720329 333.56526414 -219.23832 329.35003816 -220.36328125 324.94140625 C-220.97223772 322.72187637 -221.69165955 320.70334979 -222.578125 318.5859375 C-224.6237882 313.43947957 -225.42706291 307.95404752 -226.4296875 302.53125 C-226.90922413 299.45674244 -226.90922413 299.45674244 -228.078125 297.3359375 C-228.35234249 295.94780121 -228.58612741 294.55152317 -228.796875 293.15234375 C-228.92449219 292.30607422 -229.05210937 291.45980469 -229.18359375 290.58789062 C-229.31378906 289.70037109 -229.44398438 288.81285156 -229.578125 287.8984375 C-229.70832031 287.04572266 -229.83851563 286.19300781 -229.97265625 285.31445312 C-231.78708483 273.11746102 -232.28270517 261.08792063 -232.265625 248.7734375 C-232.26502075 247.97025085 -232.2644165 247.16706421 -232.26379395 246.33953857 C-232.24035014 234.8752328 -231.96833295 223.66418515 -230.078125 212.3359375 C-229.8927417 211.10689697 -229.8927417 211.10689697 -229.70361328 209.85302734 C-227.61848545 196.07601911 -224.18034199 182.97899484 -219.859375 169.74121094 C-219.21293308 167.75097787 -218.59487017 165.75155202 -217.984375 163.75 C-212.58770852 146.39692589 -203.14170349 130.00446859 -194.078125 114.3359375 C-193.418125 114.3359375 -192.758125 114.3359375 -192.078125 114.3359375 C-191.85125 113.4903125 -191.624375 112.6446875 -191.390625 111.7734375 C-189.88573882 107.83206894 -187.95109245 104.44831891 -185.078125 101.3359375 C-184.418125 101.3359375 -183.758125 101.3359375 -183.078125 101.3359375 C-182.87316406 100.65917969 -182.66820312 99.98242188 -182.45703125 99.28515625 C-180.59718661 95.30730156 -177.92478887 92.40465951 -175.015625 89.1484375 C-173.91886111 87.90645748 -172.82372913 86.66303387 -171.73046875 85.41796875 C-171.24570068 84.87374268 -170.76093262 84.3295166 -170.26147461 83.76879883 C-168.97932335 82.32560985 -168.97932335 82.32560985 -168.078125 80.3359375 C-167.418125 80.3359375 -166.758125 80.3359375 -166.078125 80.3359375 C-165.6759375 79.43875 -165.6759375 79.43875 -165.265625 78.5234375 C-164.07895094 76.33745896 -162.98213387 74.92261156 -161.078125 73.3359375 C-160.418125 73.3359375 -159.758125 73.3359375 -159.078125 73.3359375 C-159.078125 72.6759375 -159.078125 72.0159375 -159.078125 71.3359375 C-158.418125 71.3359375 -157.758125 71.3359375 -157.078125 71.3359375 C-157.078125 70.6759375 -157.078125 70.0159375 -157.078125 69.3359375 C-156.418125 69.3359375 -155.758125 69.3359375 -155.078125 69.3359375 C-155.078125 68.6759375 -155.078125 68.0159375 -155.078125 67.3359375 C-154.418125 67.3359375 -153.758125 67.3359375 -153.078125 67.3359375 C-153.078125 66.6759375 -153.078125 66.0159375 -153.078125 65.3359375 C-151.38538216 63.77160963 -149.62242648 62.28265178 -147.828125 60.8359375 C-146.85359375 60.041875 -145.8790625 59.2478125 -144.875 58.4296875 C-142.62917738 56.74845716 -140.6315447 55.45457851 -138.078125 54.3359375 C-138.078125 53.6759375 -138.078125 53.0159375 -138.078125 52.3359375 C-135.9836282 50.70163999 -133.90030409 49.19426516 -131.703125 47.7109375 C-131.09984375 47.29070313 -130.4965625 46.87046875 -129.875 46.4375 C-125.34349635 43.3359375 -125.34349635 43.3359375 -123.078125 43.3359375 C-123.078125 42.6759375 -123.078125 42.0159375 -123.078125 41.3359375 C-90.09494769 16.5826052 -41.08656361 0.08141716 0 0 Z M-31.1484375 27.56640625 C-34.11023329 28.34437128 -37.0800432 28.96419789 -40.078125 29.5859375 C-59.34157914 34.00288797 -77.57769846 42.34635669 -95.078125 51.3359375 C-95.078125 51.9959375 -95.078125 52.6559375 -95.078125 53.3359375 C-95.67625 53.4803125 -96.274375 53.6246875 -96.890625 53.7734375 C-98.63962904 54.2231814 -100.36489523 54.76486091 -102.078125 55.3359375 C-102.078125 55.9959375 -102.078125 56.6559375 -102.078125 57.3359375 C-104.058125 57.9959375 -106.038125 58.6559375 -108.078125 59.3359375 C-108.078125 59.9959375 -108.078125 60.6559375 -108.078125 61.3359375 C-108.861875 61.6453125 -109.645625 61.9546875 -110.453125 62.2734375 C-113.00142628 63.26468788 -113.00142628 63.26468788 -115.078125 64.3359375 C-115.078125 64.9959375 -115.078125 65.6559375 -115.078125 66.3359375 C-116.2228125 66.7690625 -116.2228125 66.7690625 -117.390625 67.2109375 C-120.22841808 68.29862763 -120.22841808 68.29862763 -123.078125 70.3359375 C-123.078125 70.9959375 -123.078125 71.6559375 -123.078125 72.3359375 C-123.8515625 72.67625 -123.8515625 72.67625 -124.640625 73.0234375 C-127.97359505 74.81811368 -131.22516171 76.83558765 -134.078125 79.3359375 C-134.078125 79.9959375 -134.078125 80.6559375 -134.078125 81.3359375 C-134.738125 81.3359375 -135.398125 81.3359375 -136.078125 81.3359375 C-136.078125 81.9959375 -136.078125 82.6559375 -136.078125 83.3359375 C-136.738125 83.3359375 -137.398125 83.3359375 -138.078125 83.3359375 C-138.078125 83.9959375 -138.078125 84.6559375 -138.078125 85.3359375 C-138.7175 85.6040625 -139.356875 85.8721875 -140.015625 86.1484375 C-142.40944186 87.22261502 -142.40944186 87.22261502 -143.078125 90.3359375 C-143.738125 90.3359375 -144.398125 90.3359375 -145.078125 90.3359375 C-145.078125 90.9959375 -145.078125 91.6559375 -145.078125 92.3359375 C-145.738125 92.3359375 -146.398125 92.3359375 -147.078125 92.3359375 C-147.078125 92.9959375 -147.078125 93.6559375 -147.078125 94.3359375 C-147.738125 94.3359375 -148.398125 94.3359375 -149.078125 94.3359375 C-152.71446039 97.81592257 -152.71446039 97.81592257 -154.078125 102.3359375 C-154.738125 102.3359375 -155.398125 102.3359375 -156.078125 102.3359375 C-156.738125 103.9859375 -157.398125 105.6359375 -158.078125 107.3359375 C-158.738125 107.3359375 -159.398125 107.3359375 -160.078125 107.3359375 C-160.078125 107.9959375 -160.078125 108.6559375 -160.078125 109.3359375 C-160.738125 109.3359375 -161.398125 109.3359375 -162.078125 109.3359375 C-164.39404522 112.55707907 -164.39404522 112.55707907 -165.078125 116.3359375 C-165.738125 116.3359375 -166.398125 116.3359375 -167.078125 116.3359375 C-168.53006865 118.21646692 -169.89177105 120.16730599 -171.203125 122.1484375 C-171.92757812 123.22738281 -172.65203125 124.30632812 -173.3984375 125.41796875 C-175.32756761 128.2081246 -175.32756761 128.2081246 -175.078125 131.3359375 C-175.738125 131.3359375 -176.398125 131.3359375 -177.078125 131.3359375 C-177.4184375 132.0165625 -177.75875 132.6971875 -178.109375 133.3984375 C-178.5940625 134.3678125 -179.07875 135.3371875 -179.578125 136.3359375 C-180.1246875 137.43292969 -180.67125 138.52992188 -181.234375 139.66015625 C-182.48895572 142.17135436 -183.76209559 144.67209581 -185.046875 147.16796875 C-195.6356791 167.83123437 -202.87294469 189.30221356 -206.078125 212.3359375 C-206.24658936 213.46572021 -206.41505371 214.59550293 -206.58862305 215.75952148 C-208.03275907 226.12964033 -208.43882681 236.3106067 -208.390625 246.7734375 C-208.38880219 247.59888062 -208.38697937 248.42432373 -208.38510132 249.27478027 C-208.31123704 269.24363939 -206.67746989 288.37427768 -200.64501953 307.49511719 C-199.84700589 310.08642763 -199.18517929 312.70894307 -198.515625 315.3359375 C-197.10379301 320.51791302 -195.17198766 325.39619109 -193.078125 330.3359375 C-192.20276891 332.43995605 -191.32777754 334.54412638 -190.453125 336.6484375 C-190.04835938 337.61394531 -189.64359375 338.57945312 -189.2265625 339.57421875 C-188.1542642 342.15284085 -187.10876533 344.74042585 -186.078125 347.3359375 C-185.418125 347.3359375 -184.758125 347.3359375 -184.078125 347.3359375 C-183.96210938 347.88765625 -183.84609375 348.439375 -183.7265625 349.0078125 C-180.79756403 359.52397569 -173.68287367 368.68124448 -167.43115234 377.43798828 C-166.16242244 379.21768988 -164.90942941 381.00739412 -163.66015625 382.80078125 C-160.97680981 386.65156743 -160.97680981 386.65156743 -158.078125 390.3359375 C-157.418125 390.3359375 -156.758125 390.3359375 -156.078125 390.3359375 C-156.078125 390.9959375 -156.078125 391.6559375 -156.078125 392.3359375 C-155.418125 392.3359375 -154.758125 392.3359375 -154.078125 392.3359375 C-153.83707031 392.89410156 -153.59601563 393.45226562 -153.34765625 394.02734375 C-150.76758281 398.71910806 -146.71333361 402.44286807 -143.078125 406.3359375 C-142.53929687 406.91730469 -142.00046875 407.49867188 -141.4453125 408.09765625 C-140.3686338 409.22268879 -139.23037474 410.28843773 -138.078125 411.3359375 C-137.418125 411.3359375 -136.758125 411.3359375 -136.078125 411.3359375 C-135.583125 412.8209375 -135.583125 412.8209375 -135.078125 414.3359375 C-132.02304474 417.36870949 -132.02304474 417.36870949 -128.078125 418.3359375 C-128.078125 418.9959375 -128.078125 419.6559375 -128.078125 420.3359375 C-127.418125 420.3359375 -126.758125 420.3359375 -126.078125 420.3359375 C-126.078125 420.9959375 -126.078125 421.6559375 -126.078125 422.3359375 C-125.088125 422.3359375 -124.098125 422.3359375 -123.078125 422.3359375 C-123.078125 422.9959375 -123.078125 423.6559375 -123.078125 424.3359375 C-120.44127753 426.73414055 -120.44127753 426.73414055 -117.078125 427.3359375 C-117.078125 427.9959375 -117.078125 428.6559375 -117.078125 429.3359375 C-115.098125 429.9959375 -113.118125 430.6559375 -111.078125 431.3359375 C-111.078125 431.9959375 -111.078125 432.6559375 -111.078125 433.3359375 C-110.088125 433.3359375 -109.098125 433.3359375 -108.078125 433.3359375 C-108.078125 433.9959375 -108.078125 434.6559375 -108.078125 435.3359375 C-98.27354878 441.09612603 -88.31 446.37631295 -78.078125 451.3359375 C-76.98757812 451.8721875 -75.89703125 452.4084375 -74.7734375 452.9609375 C-59.08821983 460.47106666 -43.06039123 464.82691241 -26.078125 468.3359375 C-25.2325 468.51560059 -24.386875 468.69526367 -23.515625 468.88037109 C18.77238308 477.67947942 64.56166519 471.56683462 103.921875 454.3359375 C105.83558051 453.55778175 107.75211079 452.78652369 109.671875 452.0234375 C110.49171875 451.69730469 111.3115625 451.37117188 112.15625 451.03515625 C112.73890625 450.80441406 113.3215625 450.57367188 113.921875 450.3359375 C113.921875 449.6759375 113.921875 449.0159375 113.921875 448.3359375 C114.4890625 448.21476562 115.05625 448.09359375 115.640625 447.96875 C124.06813385 445.63098213 132.75706488 440.22327361 139.921875 435.3359375 C139.921875 434.6759375 139.921875 434.0159375 139.921875 433.3359375 C140.63730469 433.078125 141.35273438 432.8203125 142.08984375 432.5546875 C145.09347611 431.26208985 147.55692872 429.7081666 150.234375 427.8359375 C151.11738281 427.2275 152.00039063 426.6190625 152.91015625 425.9921875 C153.57402344 425.445625 154.23789062 424.8990625 154.921875 424.3359375 C154.921875 423.6759375 154.921875 423.0159375 154.921875 422.3359375 C156.571875 421.6759375 158.221875 421.0159375 159.921875 420.3359375 C159.921875 419.6759375 159.921875 419.0159375 159.921875 418.3359375 C160.581875 418.3359375 161.241875 418.3359375 161.921875 418.3359375 C161.921875 417.6759375 161.921875 417.0159375 161.921875 416.3359375 C162.499375 416.0678125 163.076875 415.7996875 163.671875 415.5234375 C165.97737543 414.30664561 167.94243692 413.03259871 169.921875 411.3359375 C169.921875 410.6759375 169.921875 410.0159375 169.921875 409.3359375 C170.51967773 409.06716797 171.11748047 408.79839844 171.73339844 408.52148438 C173.93185333 407.33053202 175.25134457 406.1920701 176.9375 404.3671875 C177.73027344 403.51060547 177.73027344 403.51060547 178.5390625 402.63671875 C179.07789063 402.04246094 179.61671875 401.44820313 180.171875 400.8359375 C180.72617187 400.24167969 181.28046875 399.64742188 181.8515625 399.03515625 C184.88752087 396.14852497 184.88752087 396.14852497 185.921875 392.3359375 C186.581875 392.3359375 187.241875 392.3359375 187.921875 392.3359375 C187.921875 391.6759375 187.921875 391.0159375 187.921875 390.3359375 C188.581875 390.3359375 189.241875 390.3359375 189.921875 390.3359375 C191.5360398 388.32814839 193.01953163 386.32450911 194.484375 384.2109375 C194.92692627 383.58074707 195.36947754 382.95055664 195.82543945 382.30126953 C208.29432761 364.41238169 219.54252329 346.0555737 226.52734375 325.31640625 C227.41783003 322.69209825 228.39833418 320.2347874 229.50390625 317.6796875 C230.78652454 314.65511103 231.67434972 311.83876862 232.421875 308.6484375 C232.66808594 307.61332031 232.91429687 306.57820313 233.16796875 305.51171875 C233.41675781 304.46371094 233.66554688 303.41570312 233.921875 302.3359375 C234.44197628 300.335747 234.96280023 298.33574427 235.484375 296.3359375 C239.3177291 280.88210158 240.09839924 265.37784057 240.05224609 249.52246094 C240.04687962 247.3378201 240.05223454 245.15338474 240.05859375 242.96875 C240.06687282 227.06253023 239.128156 211.54235757 234.703125 196.1875 C233.8486837 193.06878926 233.16540709 189.93431468 232.484375 186.7734375 C231.39177124 181.96145202 229.97179722 177.56734425 228.0390625 173.03515625 C226.63180106 169.63509452 225.39811074 166.17917141 224.171875 162.7109375 C223.52992188 160.89722656 223.52992188 160.89722656 222.875 159.046875 C222.56046875 158.15226563 222.2459375 157.25765625 221.921875 156.3359375 C221.261875 156.3359375 220.601875 156.3359375 219.921875 156.3359375 C219.79619141 155.34787109 219.79619141 155.34787109 219.66796875 154.33984375 C218.67163705 150.32843498 216.87823834 146.93043733 214.984375 143.2734375 C214.44393555 142.21286133 214.44393555 142.21286133 213.89257812 141.13085938 C213.20441532 139.78114779 212.51395742 138.43260299 211.82080078 137.08544922 C210.83978777 135.1761773 209.87584412 133.25885956 208.921875 131.3359375 C208.261875 131.3359375 207.601875 131.3359375 206.921875 131.3359375 C206.921875 130.3459375 206.921875 129.3559375 206.921875 128.3359375 C206.261875 128.3359375 205.601875 128.3359375 204.921875 128.3359375 C204.74289673 127.44950562 204.74289673 127.44950562 204.56030273 126.54516602 C203.90178771 124.26642702 203.10169584 122.88902666 201.70703125 120.98828125 C201.26810547 120.38306641 200.82917969 119.77785156 200.37695312 119.15429688 C199.91740234 118.53361328 199.45785156 117.91292969 198.984375 117.2734375 C198.07914995 116.03275423 197.17419243 114.79187573 196.26953125 113.55078125 C195.49480469 112.48988281 194.72007812 111.42898437 193.921875 110.3359375 C193.261875 109.3459375 192.601875 108.3559375 191.921875 107.3359375 C191.261875 107.3359375 190.601875 107.3359375 189.921875 107.3359375 C189.695 106.8203125 189.468125 106.3046875 189.234375 105.7734375 C187.43969882 102.44046745 185.42222485 99.18890079 182.921875 96.3359375 C182.261875 96.3359375 181.601875 96.3359375 180.921875 96.3359375 C180.921875 95.6759375 180.921875 95.0159375 180.921875 94.3359375 C180.261875 94.3359375 179.601875 94.3359375 178.921875 94.3359375 C178.921875 93.6759375 178.921875 93.0159375 178.921875 92.3359375 C178.261875 92.3359375 177.601875 92.3359375 176.921875 92.3359375 C176.921875 91.6759375 176.921875 91.0159375 176.921875 90.3359375 C176.261875 90.3359375 175.601875 90.3359375 174.921875 90.3359375 C174.591875 89.3459375 174.261875 88.3559375 173.921875 87.3359375 C173.261875 87.3359375 172.601875 87.3359375 171.921875 87.3359375 C171.921875 86.6759375 171.921875 86.0159375 171.921875 85.3359375 C171.261875 85.3359375 170.601875 85.3359375 169.921875 85.3359375 C169.921875 84.6759375 169.921875 84.0159375 169.921875 83.3359375 C169.261875 83.3359375 168.601875 83.3359375 167.921875 83.3359375 C167.921875 82.6759375 167.921875 82.0159375 167.921875 81.3359375 C167.261875 81.3359375 166.601875 81.3359375 165.921875 81.3359375 C165.921875 80.6759375 165.921875 80.0159375 165.921875 79.3359375 C163.97811546 77.51964974 163.97811546 77.51964974 161.546875 75.7109375 C160.73476563 75.07929687 159.92265625 74.44765625 159.0859375 73.796875 C157.08077621 72.14942942 157.08077621 72.14942942 154.921875 72.3359375 C154.921875 71.6759375 154.921875 71.0159375 154.921875 70.3359375 C151.28863811 67.37358055 151.28863811 67.37358055 146.921875 66.3359375 C146.921875 65.6759375 146.921875 65.0159375 146.921875 64.3359375 C145.931875 64.3359375 144.941875 64.3359375 143.921875 64.3359375 C143.921875 63.6759375 143.921875 63.0159375 143.921875 62.3359375 C142.601875 62.0059375 141.281875 61.6759375 139.921875 61.3359375 C139.921875 60.6759375 139.921875 60.0159375 139.921875 59.3359375 C138.50859371 58.51756308 137.09109154 57.70647531 135.671875 56.8984375 C134.88296875 56.44597656 134.0940625 55.99351563 133.28125 55.52734375 C131.13354032 54.44282148 129.26982439 53.80445034 126.921875 53.3359375 C126.921875 52.6759375 126.921875 52.0159375 126.921875 51.3359375 C114.12169744 45.03343157 101.41941877 38.98333833 87.921875 34.3359375 C86.71917969 33.89765625 85.51648438 33.459375 84.27734375 33.0078125 C77.39618273 30.57485674 70.55353071 28.67114431 63.421875 27.1484375 C62.33845825 26.91616455 62.33845825 26.91616455 61.2331543 26.67919922 C58.80211184 26.18726307 56.36690029 25.75306663 53.921875 25.3359375 C52.890625 25.15498535 51.859375 24.9740332 50.796875 24.78759766 C40.17944039 23.13596409 29.68593308 23.03016142 18.9609375 23.07519531 C15.9268801 23.08591981 12.89341458 23.07523983 9.859375 23.0625 C-4.22025919 23.05222667 -17.4872082 23.88838298 -31.1484375 27.56640625 Z " fill="#0C0C0C" transform="translate(233.078125,6.6640625)"/>
<path d="M0 0 C0.78130783 -0.00029205 1.56261566 -0.00058411 2.36759949 -0.00088501 C4.92690488 0.0004983 7.48591204 0.01601193 10.04516602 0.03173828 C11.82877951 0.03547197 13.61239507 0.03831726 15.39601135 0.04031372 C20.07312763 0.04792215 24.75011819 0.06754649 29.42718506 0.08972168 C34.20672913 0.11024041 38.98629365 0.11932829 43.76586914 0.12939453 C53.13115852 0.15079516 62.49635491 0.18489719 71.86157227 0.22705078 C73.32776489 3.15943603 73.23774065 6.19736172 73.42016602 9.42041016 C73.46241806 10.13723717 73.5046701 10.85406418 73.54820251 11.59261322 C73.94097723 18.77428263 73.9711728 25.94193559 73.92407227 33.13330078 C73.91941639 34.52692479 73.91538095 35.920551 73.91191101 37.31417847 C73.90396705 40.26030935 73.89350668 43.20641305 73.88070679 46.15252686 C73.84713615 53.9716153 73.82713907 61.790708 73.81860352 69.60986328 C73.81769022 70.3977486 73.81677692 71.18563393 73.81583595 71.99739456 C73.80574589 86.37105348 74.09490381 100.72425563 74.46157837 115.09332275 C74.85988103 131.06627349 75.19550923 146.92844352 73.67407227 162.85205078 C73.56087646 164.04749512 73.44768066 165.24293945 73.33105469 166.47460938 C71.90479766 178.82112422 68.263087 190.08323173 62.86157227 201.22705078 C62.08404267 202.9532168 61.31271188 204.68219518 60.54907227 206.41455078 C60.22293945 207.15060547 59.89680664 207.88666016 59.56079102 208.64501953 C59.33004883 209.16708984 59.09930664 209.68916016 58.86157227 210.22705078 C58.20157227 210.22705078 57.54157227 210.22705078 56.86157227 210.22705078 C56.71719727 210.84580078 56.57282227 211.46455078 56.42407227 212.10205078 C55.86157227 214.22705078 55.86157227 214.22705078 54.86157227 216.22705078 C54.20157227 216.22705078 53.54157227 216.22705078 52.86157227 216.22705078 C52.86157227 217.21705078 52.86157227 218.20705078 52.86157227 219.22705078 C52.20157227 219.22705078 51.54157227 219.22705078 50.86157227 219.22705078 C50.59344727 219.80455078 50.32532227 220.38205078 50.04907227 220.97705078 C48.83228037 223.28255121 47.55823347 225.24761271 45.86157227 227.22705078 C45.20157227 227.22705078 44.54157227 227.22705078 43.86157227 227.22705078 C43.86157227 227.88705078 43.86157227 228.54705078 43.86157227 229.22705078 C43.20157227 229.22705078 42.54157227 229.22705078 41.86157227 229.22705078 C41.61407227 229.82517578 41.36657227 230.42330078 41.11157227 231.03955078 C39.68084701 233.54331997 38.29241406 234.70777466 35.86157227 236.22705078 C35.20157227 236.22705078 34.54157227 236.22705078 33.86157227 236.22705078 C33.86157227 236.88705078 33.86157227 237.54705078 33.86157227 238.22705078 C32.21157227 238.88705078 30.56157227 239.54705078 28.86157227 240.22705078 C28.86157227 240.88705078 28.86157227 241.54705078 28.86157227 242.22705078 C-9.76692212 263.59756764 -9.76692212 263.59756764 -28.13842773 261.22705078 C-33.7787155 258.30618747 -33.7787155 258.30618747 -35.13842773 254.22705078 C-35.49276282 249.70927846 -35.47312523 245.17160428 -33.74389648 240.94189453 C-30.57978277 237.56222076 -25.70162089 237.57820385 -21.31030273 236.91455078 C-5.40725425 234.49291666 9.70713502 226.56078285 21.86157227 216.22705078 C22.67754883 215.60958984 23.49352539 214.99212891 24.33422852 214.35595703 C41.23469153 200.11986377 47.57561456 177.21642523 49.86157227 156.22705078 C50.10844294 151.65959849 50.09642132 147.11258212 50.04907227 142.53955078 C50.04203904 141.142011 50.03555715 139.74446836 50.02954102 138.34692383 C49.92096568 119.61543194 49.57367451 100.88237721 49.25358105 82.15334988 C48.92413434 62.84243095 48.79543388 43.54085889 48.86157227 24.22705078 C48.15714996 24.22927139 47.45272766 24.231492 46.72695923 24.23377991 C40.04894821 24.25391809 33.37094582 24.26909336 26.69291115 24.27886295 C23.2606742 24.28405462 19.8284626 24.29108375 16.39624023 24.30249023 C12.43937496 24.31555618 8.48251951 24.32030969 4.52563477 24.32470703 C2.70003525 24.33244896 2.70003525 24.33244896 0.83755493 24.34034729 C-4.38068826 24.34068693 -9.59563966 24.29397447 -14.80493164 23.97094727 C-15.57495514 23.92542221 -16.34497864 23.87989716 -17.13833618 23.83299255 C-19.89380631 22.99820354 -20.69686014 21.66348699 -22.13842773 19.22705078 C-22.53686523 16.57080078 -22.53686523 16.57080078 -22.51342773 13.72705078 C-22.52116211 12.78861328 -22.52889648 11.85017578 -22.53686523 10.88330078 C-22.07875917 7.82926032 -21.20777172 6.4798834 -19.13842773 4.22705078 C-13.3834699 0.52743503 -6.67280811 -0.0663739 0 0 Z " fill="#0E0E0E" transform="translate(147.138427734375,127.77294921875)"/>
<path d="M0 0 C0 0.66 0 1.32 0 2 C0.66 2 1.32 2 2 2 C0.21691105 27.73881656 -3.97506898 56.89526925 -22 77 C-22.66 77 -23.32 77 -24 77 C-24 77.66 -24 78.32 -24 79 C-24.66 79 -25.32 79 -26 79 C-26.226875 79.556875 -26.45375 80.11375 -26.6875 80.6875 C-28.37550036 83.66159588 -30.46676517 85.72008865 -33 88 C-33.66 88 -34.32 88 -35 88 C-35 88.66 -35 89.32 -35 90 C-35.66 90 -36.32 90 -37 90 C-37 90.66 -37 91.32 -37 92 C-42.41176471 96 -42.41176471 96 -45 96 C-45 96.66 -45 97.32 -45 98 C-56.3604159 104.34170052 -67.77325428 109.55261062 -80 114 C-78.56720703 114.65355469 -78.56720703 114.65355469 -77.10546875 115.3203125 C-69.23570653 118.93625953 -61.53808628 122.72162671 -54 127 C-54 127.66 -54 128.32 -54 129 C-53.44699219 129.0825 -52.89398438 129.165 -52.32421875 129.25 C-44.08559938 131.90851247 -35.46132633 141.42240257 -30 148 C-28.75390625 150.765625 -28.75390625 150.765625 -28 153 C-27.34 153 -26.68 153 -26 153 C-7.6819981 177.97143708 -3.54054644 205.76442177 -4 236 C-8.52024249 238.64249825 -11.42550488 239.33001415 -16.625 238.8125 C-17.73101562 238.71582031 -18.83703125 238.61914062 -19.9765625 238.51953125 C-22.77460986 238.03872983 -24.53453793 237.31715101 -27 236 C-27.00410889 235.41847168 -27.00821777 234.83694336 -27.01245117 234.23779297 C-27.26181078 213.84616164 -29.58743443 194.83214732 -40 177 C-40.34804688 176.32324219 -40.69609375 175.64648438 -41.0546875 174.94921875 C-45.52277387 166.34914099 -53.15351419 156.42324291 -62 152 C-62 151.34 -62 150.68 -62 150 C-62.72574219 149.72929687 -63.45148438 149.45859375 -64.19921875 149.1796875 C-66.93265532 148.02836554 -69.29883049 146.6924902 -71.8125 145.125 C-84.16742864 137.61728525 -97.06724819 133.5348952 -111 130 C-112.91726284 123.5196516 -113.36594519 117.553803 -113.375 110.8125 C-113.39949219 109.84119141 -113.42398437 108.86988281 -113.44921875 107.86914062 C-113.46641283 103.68811271 -113.35972615 100.74027854 -111.515625 96.9453125 C-107.98468963 94.21486869 -104.71950247 93.74383663 -100.375 93.0625 C-83.64892084 89.97713806 -67.94338617 84.9540969 -54.55859375 74.1015625 C-53 73 -53 73 -51 73 C-51 72.34 -51 71.68 -51 71 C-49.390625 69.44921875 -49.390625 69.44921875 -47.25 67.6875 C-43.18971073 64.23086435 -39.72135972 61.16407916 -38 56 C-37.34 56 -36.68 56 -36 56 C-35.81050781 55.12794922 -35.81050781 55.12794922 -35.6171875 54.23828125 C-35.0047719 52.0173057 -34.19431176 50.22250804 -33.125 48.1875 C-26.26044436 35.07998233 -23.74589383 21.42285843 -22.39453125 6.86328125 C-21.76774688 0.72575906 -21.76774688 0.72575906 -21 -2 C-14.49327582 -6.21023329 -6.61535945 -2.3851296 0 0 Z " fill="#0C0C0C" transform="translate(379,134)"/>
<path d="M0 0 C2.33624461 -0.1642672 4.66068015 -0.28178232 7 -0.375 C8.299375 -0.44460937 9.59875 -0.51421875 10.9375 -0.5859375 C15.24087384 -0.30937909 18.15194159 1.34758517 21.43343759 4.08548141 C24.3324026 7.6283485 24.09689512 11.23699368 24.00241089 15.65408325 C24.01347968 16.62010589 24.02454848 17.58612854 24.03595269 18.58142459 C24.06316391 21.81591189 24.03323797 25.04731138 24.00341797 28.28173828 C24.01098453 30.60124015 24.02198477 32.92073299 24.03616333 35.24020386 C24.06410303 41.53782077 24.04171458 47.83434677 24.0087409 54.13190317 C23.9810602 60.71773565 23.99395746 67.30350415 24.00100708 73.88937378 C24.0078727 84.94741762 23.97962515 96.00505121 23.93310547 107.06298828 C23.88524294 118.44140728 23.87110576 129.8192523 23.89208984 141.19775391 C23.91733563 154.91169628 23.91233609 168.62523467 23.88077164 182.33916855 C23.86923975 187.5775866 23.86942674 192.81581262 23.87890244 198.05423355 C23.88842913 204.2186682 23.86829402 210.38230594 23.82499313 216.5465889 C23.81384014 218.81214205 23.81294268 221.07777166 23.82289886 223.34333038 C23.83476401 226.42973998 23.80988236 229.513696 23.77536011 232.59988403 C23.7873802 233.50240375 23.79940029 234.40492346 23.81178463 235.33479226 C23.76329714 237.7084706 23.6690284 239.72192232 23 242 C19.11991657 245.3904429 16.03696116 246.84428385 10.95703125 246.58203125 C6.17844623 245.16085527 3.90459725 240.46940757 1.43978405 236.46562004 C-0.42537983 231.97609307 -0.40803794 228.24289377 -0.36076355 223.43289185 C-0.36332682 222.4762976 -0.3658901 221.51970335 -0.36853105 220.53412139 C-0.37346768 217.33263407 -0.35697769 214.13161958 -0.34057617 210.93017578 C-0.33972988 208.63375357 -0.34020509 206.33733055 -0.34190369 204.04090881 C-0.34276496 197.80792077 -0.32511761 191.57510567 -0.30418181 185.34215784 C-0.28543715 178.82787609 -0.28366631 172.31359045 -0.28010559 165.79928589 C-0.27183856 154.86583368 -0.25309568 143.93244539 -0.22631836 132.99902344 C-0.19876971 121.73893551 -0.17754008 110.47886483 -0.16479492 99.21875 C-0.16400675 98.52435637 -0.16321858 97.82996274 -0.16240653 97.11452688 C-0.15849134 93.6308622 -0.15470023 90.14719739 -0.15097082 86.6635325 C-0.11988462 57.77564636 -0.06683387 28.8878247 0 0 Z " fill="#0A0A0A" transform="translate(235,129)"/>
<path d="M0 0 C2.97 0 5.94 0 9 0 C14.08331425 13.67466615 14.72642062 26.28769875 14.62890625 40.77734375 C14.62973748 43.04163222 14.63220638 45.30592061 14.63621521 47.57020569 C14.63905505 52.28942273 14.62455155 57.00816043 14.59692383 61.72729492 C14.56286493 67.72603307 14.56887077 73.72391441 14.5875864 79.72269344 C14.59824008 84.39094472 14.58914285 89.05900243 14.57420158 93.72723579 C14.56907917 95.9368488 14.56942785 98.14648254 14.57574654 100.35609245 C14.59973655 113.78201279 13.58052492 126.03224973 10 139 C9.34 139 8.68 139 8 139 C8 139.66 8 140.32 8 141 C5.36 141 2.72 141 0 141 C0 94.47 0 47.94 0 0 Z " fill="#202020" transform="translate(160,169)"/>
<path d="M0 0 C7.18849438 0.40689591 12.59731401 2.82098157 19 6 C19.87269531 6.41765625 20.74539063 6.8353125 21.64453125 7.265625 C32.8777121 12.71829036 32.8777121 12.71829036 37 16 C37 16.66 37 17.32 37 18 C37.556875 18.2475 38.11375 18.495 38.6875 18.75 C41.42410913 20.22924818 43.67650869 21.93467439 46 24 C46 24.66 46 25.32 46 26 C46.66 26 47.32 26 48 26 C48 26.66 48 27.32 48 28 C48.66 28 49.32 28 50 28 C50 28.99 50 29.98 50 31 C50.66 31 51.32 31 52 31 C63.63379039 46.07234912 67.39767683 64.34957207 67.1875 83 C67.1865332 84.67642578 67.1865332 84.67642578 67.18554688 86.38671875 C67.14108963 94.57673111 67.14108963 94.57673111 66 98 C60.555 97.505 60.555 97.505 55 97 C54.9906543 96.23034912 54.98130859 95.46069824 54.97167969 94.66772461 C54.70505531 77.1868369 54.44775554 61.68868886 46 46 C46 45.01 46 44.02 46 43 C45.34 43 44.68 43 44 43 C42.62577362 41.25522851 41.32413378 39.45284187 40.0625 37.625 C37.06493722 33.28388498 37.06493722 33.28388498 33 30 C33 29.34 33 28.68 33 28 C32.278125 27.7525 31.55625 27.505 30.8125 27.25 C27.74942192 25.88863197 25.58665661 24.11016723 23 22 C22.01 21.67 21.02 21.34 20 21 C20 20.34 20 19.68 20 19 C19.47277344 18.88527344 18.94554687 18.77054687 18.40234375 18.65234375 C15.36446868 17.82742483 12.49545038 16.70516391 9.5625 15.5625 C7.89380859 14.91474609 7.89380859 14.91474609 6.19140625 14.25390625 C5.13824219 13.84011719 4.08507812 13.42632812 3 13 C2.06027344 12.65839844 1.12054688 12.31679688 0.15234375 11.96484375 C-2 11 -2 11 -3 9 C-2.44140625 6.8359375 -2.44140625 6.8359375 -1.5625 4.375 C-1.27503906 3.55773437 -0.98757813 2.74046875 -0.69140625 1.8984375 C-0.46324219 1.27195312 -0.23507812 0.64546875 0 0 Z " fill="#171717" transform="translate(273,278)"/>
<path d="M0 0 C1.51400391 0.01740234 1.51400391 0.01740234 3.05859375 0.03515625 C4.07050781 0.04417969 5.08242188 0.05320313 6.125 0.0625 C6.90746094 0.07410156 7.68992187 0.08570313 8.49609375 0.09765625 C8.76488101 7.09919116 8.14664356 13.41838815 6.49609375 20.22265625 C6.28041748 21.12556396 6.06474121 22.02847168 5.8425293 22.95874023 C3.60312379 31.69219061 -0.11182105 39.27334552 -4.50390625 47.09765625 C-5.17993984 48.42626485 -5.85199006 49.75704911 -6.50390625 51.09765625 C-7.16390625 51.09765625 -7.82390625 51.09765625 -8.50390625 51.09765625 C-8.83390625 52.41765625 -9.16390625 53.73765625 -9.50390625 55.09765625 C-10.16390625 55.09765625 -10.82390625 55.09765625 -11.50390625 55.09765625 C-11.50390625 55.75765625 -11.50390625 56.41765625 -11.50390625 57.09765625 C-12.16390625 57.09765625 -12.82390625 57.09765625 -13.50390625 57.09765625 C-13.74109375 57.6803125 -13.97828125 58.26296875 -14.22265625 58.86328125 C-15.77658685 61.57318462 -17.52320056 62.96296427 -20.00390625 64.84765625 C-20.79796875 65.46125 -21.59203125 66.07484375 -22.41015625 66.70703125 C-24.50390625 68.09765625 -24.50390625 68.09765625 -26.50390625 68.09765625 C-26.50390625 68.75765625 -26.50390625 69.41765625 -26.50390625 70.09765625 C-34.64192021 74.77045136 -42.42565191 78.54801886 -51.50390625 81.09765625 C-52.23738281 81.31164062 -52.97085937 81.525625 -53.7265625 81.74609375 C-60.8338815 83.57938351 -68.20441762 83.73220096 -75.50390625 84.09765625 C-75.50390625 80.46765625 -75.50390625 76.83765625 -75.50390625 73.09765625 C-74.49972656 72.9275 -73.49554688 72.75734375 -72.4609375 72.58203125 C-57.74917063 70.01276438 -43.39687024 66.65071919 -31.2578125 57.3828125 C-29.50390625 56.09765625 -29.50390625 56.09765625 -27.50390625 56.09765625 C-27.50390625 55.43765625 -27.50390625 54.77765625 -27.50390625 54.09765625 C-26.84390625 54.09765625 -26.18390625 54.09765625 -25.50390625 54.09765625 C-25.50390625 53.43765625 -25.50390625 52.77765625 -25.50390625 52.09765625 C-24.84390625 52.09765625 -24.18390625 52.09765625 -23.50390625 52.09765625 C-23.50390625 51.43765625 -23.50390625 50.77765625 -23.50390625 50.09765625 C-22.84390625 50.09765625 -22.18390625 50.09765625 -21.50390625 50.09765625 C-21.23320312 49.5253125 -20.9625 48.95296875 -20.68359375 48.36328125 C-19.47986252 46.05147956 -18.1146361 43.98772309 -16.62890625 41.84765625 C-9.29507904 30.90936895 -6.46695314 19.98573039 -4.50561523 7.07861328 C-3.43773597 0.13407707 -3.43773597 0.13407707 0 0 Z " fill="#191919" transform="translate(338.50390625,133.90234375)"/>
<path d="M0 0 C1.98 0.99 3.96 1.98 6 3 C6 4.32 6 5.64 6 7 C5.01 7.33 4.02 7.66 3 8 C0.8125 6.5625 0.8125 6.5625 -1 5 C-0.67 3.35 -0.34 1.7 0 0 Z " fill="#292929" transform="translate(134,447)"/>
<path d="M0 0 C0.33 0.99 0.66 1.98 1 3 C-0.43359375 5.04296875 -0.43359375 5.04296875 -2.4375 7.1875 C-3.09621094 7.90292969 -3.75492188 8.61835938 -4.43359375 9.35546875 C-4.95050781 9.89816406 -5.46742188 10.44085938 -6 11 C-6.66 10.01 -7.32 9.02 -8 8 C-7.50628906 7.59007812 -7.01257813 7.18015625 -6.50390625 6.7578125 C-5.86324219 6.21898437 -5.22257813 5.68015625 -4.5625 5.125 C-3.92441406 4.59132813 -3.28632813 4.05765625 -2.62890625 3.5078125 C-0.89194996 2.0777243 -0.89194996 2.0777243 0 0 Z " fill="#525252" transform="translate(175,338)"/>
<path d="M0 0 C0.66 0.33 1.32 0.66 2 1 C1.67 2.32 1.34 3.64 1 5 C0.01 5 -0.98 5 -2 5 C-1.125 1.125 -1.125 1.125 0 0 Z M-4 5 C-3.01 5.495 -3.01 5.495 -2 6 C-2.99 6.495 -2.99 6.495 -4 7 C-4 6.34 -4 5.68 -4 5 Z " fill="#030303" transform="translate(454,349)"/>
<path d="M0 0 C-1.28519565 2.86697492 -2.57129254 4.97607712 -5 7 C-5.66 7 -6.32 7 -7 7 C-3.86206897 0 -3.86206897 0 0 0 Z " fill="#666666" transform="translate(74,80)"/>
<path d="M0 0 C0.66 0.99 1.32 1.98 2 3 C0.35 4.32 -1.3 5.64 -3 7 C-3.66 6.67 -4.32 6.34 -5 6 C-3.35 4.02 -1.7 2.04 0 0 Z " fill="#454545" transform="translate(340,193)"/>
</svg>
